<svg width="158" height="158" viewBox="0 0 158 158" fill="none" xmlns="http://www.w3.org/2000/svg">
<path d="M53.1539 86.0772C56.3619 97.1855 66.8213 105.544 78.7812 105.544C91.2197 105.544 100.828 97.1571 104.178 86.0772H142.888C139.948 110.078 124.103 131.297 100.824 139.64H100.82C75.1562 148.842 46.0165 140.796 28.6991 119.739C20.8548 110.119 15.9828 98.4216 14.6787 86.0772H53.1539ZM66.4804 78.8912C66.4804 62.9121 90.2918 63.1676 91.0867 78.8912C90.2748 94.6061 66.4808 94.8697 66.4804 78.8912ZM23.3254 45.7485C36.9968 22.8829 64.3598 10.31 90.6276 15.3511C118.774 20.741 139.469 43.9312 142.876 71.7242H104.178C100.828 60.6282 91.1995 52.2572 78.7812 52.2572C66.7565 52.2574 56.4148 60.6323 53.1864 71.7242H14.6826C15.6586 62.544 18.607 53.6834 23.3254 45.7485Z" fill="url(#paint0_linear_45_227)"/>
<path d="M157.733 78.8868C157.282 46.0688 137.191 16.6818 106.445 4.95299C75.4566 -6.85696 38.9156 3.01035 17.9602 28.6134C-2.89379 54.1111 -6.05313 90.8466 10.9318 119.276C27.8843 147.645 61.116 162.266 93.4835 156.438C130.39 149.799 156.808 116.644 157.704 79.7304C157.729 79.4499 157.738 79.1684 157.733 78.8868ZM23.3258 45.7484C36.9973 22.8828 64.3605 10.3104 90.6284 15.3516C118.774 20.7415 139.47 43.9315 142.877 71.7246H104.178C100.828 60.6284 91.2002 52.2576 78.7823 52.2576C66.7574 52.2576 56.4155 60.6325 53.1873 71.7246H14.6833C15.6592 62.5444 18.6073 53.6835 23.3258 45.7484ZM91.0867 78.8909C90.2755 94.6061 66.4816 94.8697 66.4816 78.8909C66.4816 62.9117 90.2918 63.1672 91.0867 78.8909ZM100.82 139.64C75.1565 148.842 46.0169 140.796 28.6995 119.739C20.8552 110.119 15.9833 98.4217 14.6792 86.0772H53.1548C56.3628 97.1855 66.8222 105.544 78.7823 105.544C91.2205 105.544 100.828 97.1571 104.178 86.0772H142.889C139.949 110.078 124.103 131.297 100.824 139.64H100.82Z" fill="#323033"/>
<path d="M58.5781 109.723C58.6473 110.691 58.3705 111.557 57.7479 112.318C57.1253 113.079 56.2952 113.528 55.2575 113.667C54.289 113.736 53.4243 113.459 52.6634 112.836C47.9592 108.893 44.2583 104.12 41.5603 98.5164C38.9315 92.8442 37.6172 86.8257 37.6172 80.4611C37.6172 69.7385 41.1452 60.3995 48.2014 52.444L41.664 44.9728C40.9723 44.2119 40.661 43.3472 40.7302 42.3787C40.7994 41.341 41.2144 40.5108 41.9754 39.8883C42.7363 39.1965 43.6011 38.8852 44.5696 38.9544C45.6072 39.0236 46.4373 39.4386 47.06 40.1995L53.4935 47.4632C60.8263 41.5831 69.1969 38.6431 78.605 38.6431C88.359 38.6431 97.0064 41.7906 104.547 48.0858L112.122 40.4071C112.814 39.6462 113.643 39.2657 114.612 39.2657C115.65 39.2657 116.515 39.6115 117.207 40.3034C117.967 40.9951 118.348 41.8598 118.348 42.8975C118.348 43.866 118.001 44.6962 117.31 45.3879L109.735 53.2742C116.307 61.0913 119.593 70.1536 119.593 80.4611C119.593 86.9636 118.209 93.086 115.442 98.8279C112.745 104.5 108.974 109.274 104.131 113.147C103.37 113.77 102.472 114.047 101.433 113.978C100.465 113.839 99.6693 113.39 99.0472 112.628C98.4242 111.868 98.1476 111.003 98.2166 110.034C98.3553 108.997 98.8046 108.166 99.5663 107.544C103.509 104.292 106.622 100.315 108.905 95.611C111.188 90.9073 112.329 85.8572 112.329 80.4611C112.329 71.6063 109.424 63.893 103.613 57.321C97.871 50.7492 90.7453 47.0136 82.2367 46.1142L82.5481 57.321C87.8058 58.1512 92.164 60.6416 95.6226 64.7923C99.151 68.8738 100.915 73.6124 100.915 79.0083C100.915 85.0956 98.7706 90.2843 94.4814 94.5736C90.1921 98.862 85.0042 101.007 78.9163 101.007C72.8287 101.007 67.6403 98.862 63.3514 94.5736C59.0623 90.2843 56.9178 85.0956 56.9178 79.0083C56.9178 73.6124 58.6473 68.8738 62.1061 64.7923C65.6342 60.6416 70.027 58.1512 75.2845 57.321L74.9732 46.1142C66.4643 47.0136 59.3044 50.7492 53.4935 57.321C47.7518 63.893 44.8809 71.6063 44.8809 80.4611C44.8809 85.7875 45.9877 90.7686 48.2014 95.4033C50.4151 100.038 53.4589 103.982 57.3328 107.233C58.0938 107.856 58.5089 108.685 58.5781 109.723ZM68.4359 68.6317C65.5996 71.4679 64.1815 74.9268 64.1815 79.0083C64.1815 83.0897 65.5996 86.5832 68.4359 89.4886C71.3413 92.3251 74.8348 93.743 78.9163 93.743C82.9975 93.743 86.4569 92.3251 89.2926 89.4886C92.1989 86.5832 93.6516 83.0897 93.6516 79.0083C93.6516 74.9268 92.1989 71.4679 89.2926 68.6317C86.4569 65.7261 82.9975 64.2734 78.9163 64.2734C74.8348 64.2734 71.3413 65.7261 68.4359 68.6317ZM75.492 82.7441C74.4543 81.7059 73.9355 80.4611 73.9355 79.0083C73.9355 77.5555 74.4543 76.3104 75.492 75.2727C76.5297 74.2351 77.7749 73.7162 79.2276 73.7162C80.6804 73.7162 81.9252 74.2351 82.9634 75.2727C84.0008 76.3104 84.52 77.5555 84.52 79.0083C84.52 80.4611 84.0008 81.7059 82.9634 82.7441C81.9252 83.7816 80.6804 84.3007 79.2276 84.3007C77.7749 84.3007 76.5297 83.7816 75.492 82.7441Z" fill="#323033"/>
<defs>
<linearGradient id="paint0_linear_45_227" x1="78.7835" y1="14.2466" x2="78.7835" y2="143.406" gradientUnits="userSpaceOnUse">
<stop offset="0.5" stop-color="#EE5344"/>
<stop offset="0.5" stop-color="#EBEBEB"/>
</linearGradient>
</defs>
</svg>
