<svg width="287" height="151" viewBox="0 0 287 151" fill="none" xmlns="http://www.w3.org/2000/svg">
<mask id="path-1-outside-1_0_1" maskUnits="userSpaceOnUse" x="-0.356926" y="-0.898115" width="109.029" height="103.997" fill="black">
<rect fill="white" x="-0.356926" y="-0.898115" width="109.029" height="103.997"/>
<path d="M4.71361 65.4129L12.0141 59.0667L42.5352 74.4311L42.9211 74.0957L31.9539 41.7333L39.2544 35.3871L67.8825 68.3198L62.1578 73.2962L42.49 50.671L42.1845 50.9366L52.6669 81.3772L48.3895 85.0954L19.6621 70.4303L19.3566 70.6959L39.0663 93.3694L33.3416 98.3457L4.71361 65.4129ZM43.4997 31.6967L50.2374 25.8397L70.9582 33.4054L71.2799 33.1258L66.6716 11.5537L73.4093 5.69667L79.3778 36.758L90.0574 49.0435L84.1076 54.2155L73.4281 41.93L43.4997 31.6967Z"/>
</mask>
<path d="M4.71361 65.4129L12.0141 59.0667L42.5352 74.4311L42.9211 74.0957L31.9539 41.7333L39.2544 35.3871L67.8825 68.3198L62.1578 73.2962L42.49 50.671L42.1845 50.9366L52.6669 81.3772L48.3895 85.0954L19.6621 70.4303L19.3566 70.6959L39.0663 93.3694L33.3416 98.3457L4.71361 65.4129ZM43.4997 31.6967L50.2374 25.8397L70.9582 33.4054L71.2799 33.1258L66.6716 11.5537L73.4093 5.69667L79.3778 36.758L90.0574 49.0435L84.1076 54.2155L73.4281 41.93L43.4997 31.6967Z" fill="#FFCB05"/>
<path d="M4.71361 65.4129L2.74544 63.1488L0.481309 65.117L2.44949 67.3811L4.71361 65.4129ZM12.0141 59.0667L13.3631 56.3871L11.5651 55.482L10.046 56.8026L12.0141 59.0667ZM42.5352 74.4311L41.1863 77.1108L42.9842 78.0159L44.5034 76.6953L42.5352 74.4311ZM42.9211 74.0957L44.8893 76.3598L46.4085 75.0392L45.7624 73.1328L42.9211 74.0957ZM31.9539 41.7333L29.9857 39.4692L28.4666 40.7898L29.1126 42.6962L31.9539 41.7333ZM39.2544 35.3871L41.5186 33.4189L39.5504 31.1548L37.2863 33.1229L39.2544 35.3871ZM67.8825 68.3198L69.8506 70.584L72.1148 68.6158L70.1466 66.3517L67.8825 68.3198ZM62.1578 73.2962L59.8937 75.2644L61.8619 77.5285L64.126 75.5603L62.1578 73.2962ZM42.49 50.671L44.7542 48.7028L42.786 46.4387L40.5219 48.4069L42.49 50.671ZM42.1845 50.9366L40.2163 48.6725L38.6891 50L39.348 51.9134L42.1845 50.9366ZM52.6669 81.3772L54.6351 83.6413L56.1623 82.3137L55.5034 80.4004L52.6669 81.3772ZM48.3895 85.0954L47.0255 87.7674L48.8292 88.6882L50.3577 87.3596L48.3895 85.0954ZM19.6621 70.4303L21.0261 67.7584L19.2224 66.8376L17.6939 68.1662L19.6621 70.4303ZM19.3566 70.6959L17.3884 68.4318L15.1243 70.4L17.0924 72.6641L19.3566 70.6959ZM39.0663 93.3694L41.0345 95.6335L43.2986 93.6653L41.3304 91.4012L39.0663 93.3694ZM33.3416 98.3457L31.0775 100.314L33.0457 102.578L35.3098 100.61L33.3416 98.3457ZM4.71361 65.4129L6.68179 67.6771L13.9823 61.3308L12.0141 59.0667L10.046 56.8026L2.74544 63.1488L4.71361 65.4129ZM12.0141 59.0667L10.6652 61.7463L41.1863 77.1108L42.5352 74.4311L43.8841 71.7515L13.3631 56.3871L12.0141 59.0667ZM42.5352 74.4311L44.5034 76.6953L44.8893 76.3598L42.9211 74.0957L40.953 71.8315L40.567 72.167L42.5352 74.4311ZM42.9211 74.0957L45.7624 73.1328L34.7952 40.7704L31.9539 41.7333L29.1126 42.6962L40.0799 75.0585L42.9211 74.0957ZM31.9539 41.7333L33.9221 43.9974L41.2226 37.6512L39.2544 35.3871L37.2863 33.1229L29.9857 39.4692L31.9539 41.7333ZM39.2544 35.3871L36.9903 37.3552L65.6183 70.288L67.8825 68.3198L70.1466 66.3517L41.5186 33.4189L39.2544 35.3871ZM67.8825 68.3198L65.9143 66.0557L60.1896 71.0321L62.1578 73.2962L64.126 75.5603L69.8506 70.584L67.8825 68.3198ZM62.1578 73.2962L64.422 71.328L44.7542 48.7028L42.49 50.671L40.2259 52.6392L59.8937 75.2644L62.1578 73.2962ZM42.49 50.671L40.5219 48.4069L40.2163 48.6725L42.1845 50.9366L44.1527 53.2007L44.4582 52.9351L42.49 50.671ZM42.1845 50.9366L39.348 51.9134L49.8304 82.3539L52.6669 81.3772L55.5034 80.4004L45.021 49.9598L42.1845 50.9366ZM52.6669 81.3772L50.6987 79.113L46.4213 82.8313L48.3895 85.0954L50.3577 87.3596L54.6351 83.6413L52.6669 81.3772ZM48.3895 85.0954L49.7535 82.4235L21.0261 67.7584L19.6621 70.4303L18.2981 73.1023L47.0255 87.7674L48.3895 85.0954ZM19.6621 70.4303L17.6939 68.1662L17.3884 68.4318L19.3566 70.6959L21.3247 72.9601L21.6303 72.6945L19.6621 70.4303ZM19.3566 70.6959L17.0924 72.6641L36.8022 95.3375L39.0663 93.3694L41.3304 91.4012L21.6207 68.7277L19.3566 70.6959ZM39.0663 93.3694L37.0981 91.1052L31.3735 96.0816L33.3416 98.3457L35.3098 100.61L41.0345 95.6335L39.0663 93.3694ZM33.3416 98.3457L35.6058 96.3775L6.97774 63.4448L4.71361 65.4129L2.44949 67.3811L31.0775 100.314L33.3416 98.3457ZM43.4997 31.6967L41.5315 29.4326L37.6002 32.8501L42.5291 34.5354L43.4997 31.6967ZM50.2374 25.8397L51.2663 23.0217L49.6044 22.4149L48.2692 23.5756L50.2374 25.8397ZM70.9582 33.4054L69.9293 36.2234L71.5912 36.8302L72.9264 35.6695L70.9582 33.4054ZM71.2799 33.1258L73.248 35.3899L74.5833 34.2292L74.2137 32.4991L71.2799 33.1258ZM66.6716 11.5537L64.7034 9.28955L63.3682 10.4502L63.7378 12.1804L66.6716 11.5537ZM73.4093 5.69667L76.3554 5.13057L75.3725 0.015084L71.4412 3.43254L73.4093 5.69667ZM79.3778 36.758L76.4317 37.3241L76.5841 38.1169L77.1137 38.7262L79.3778 36.758ZM90.0574 49.0435L92.0256 51.3076L94.2897 49.3394L92.3215 47.0753L90.0574 49.0435ZM84.1076 54.2155L81.8435 56.1837L83.8117 58.4478L86.0758 56.4796L84.1076 54.2155ZM73.4281 41.93L75.6922 39.9619L75.1625 39.3526L74.3987 39.0914L73.4281 41.93ZM43.4997 31.6967L45.4679 33.9609L52.2056 28.1039L50.2374 25.8397L48.2692 23.5756L41.5315 29.4326L43.4997 31.6967ZM50.2374 25.8397L49.2085 28.6578L69.9293 36.2234L70.9582 33.4054L71.9872 30.5874L51.2663 23.0217L50.2374 25.8397ZM70.9582 33.4054L72.9264 35.6695L73.248 35.3899L71.2799 33.1258L69.3117 30.8617L68.9901 31.1413L70.9582 33.4054ZM71.2799 33.1258L74.2137 32.4991L69.6054 10.927L66.6716 11.5537L63.7378 12.1804L68.3461 33.7525L71.2799 33.1258ZM66.6716 11.5537L68.6398 13.8178L75.3775 7.9608L73.4093 5.69667L71.4412 3.43254L64.7034 9.28955L66.6716 11.5537ZM73.4093 5.69667L70.4632 6.26277L76.4317 37.3241L79.3778 36.758L82.3239 36.1919L76.3554 5.13057L73.4093 5.69667ZM79.3778 36.758L77.1137 38.7262L87.7933 51.0116L90.0574 49.0435L92.3215 47.0753L81.642 34.7898L79.3778 36.758ZM90.0574 49.0435L88.0892 46.7793L82.1395 51.9514L84.1076 54.2155L86.0758 56.4796L92.0256 51.3076L90.0574 49.0435ZM84.1076 54.2155L86.3718 52.2473L75.6922 39.9619L73.4281 41.93L71.1639 43.8982L81.8435 56.1837L84.1076 54.2155ZM73.4281 41.93L74.3987 39.0914L44.4703 28.8581L43.4997 31.6967L42.5291 34.5354L72.4574 44.7687L73.4281 41.93Z" fill="#3959A5" mask="url(#path-1-outside-1_0_1)"/>
<mask id="path-3-outside-2_0_1" maskUnits="userSpaceOnUse" x="90" y="76" width="122" height="36" fill="black">
<rect fill="white" x="90" y="76" width="122" height="36"/>
<path d="M91.2212 102V77.4932H97.9888C106.625 77.4932 110.943 81.4751 110.943 89.439C110.943 93.2215 109.741 96.2635 107.337 98.5649C104.944 100.855 101.737 102 97.7153 102H91.2212ZM94.0923 80.0908V99.4023H97.7495C100.962 99.4023 103.463 98.5422 105.252 96.8218C107.041 95.1014 107.935 92.6632 107.935 89.5073C107.935 83.2297 104.597 80.0908 97.9204 80.0908H94.0923ZM126.863 102H124.06V99.2656H123.992C122.773 101.362 120.978 102.41 118.609 102.41C116.866 102.41 115.498 101.949 114.507 101.026C113.527 100.103 113.037 98.8783 113.037 97.3516C113.037 94.0817 114.963 92.179 118.814 91.6436L124.06 90.9087C124.06 87.9351 122.858 86.4482 120.454 86.4482C118.347 86.4482 116.444 87.166 114.746 88.6016V85.7305C116.467 84.6367 118.449 84.0898 120.694 84.0898C124.807 84.0898 126.863 86.266 126.863 90.6182V102ZM124.06 93.1475L119.839 93.7285C118.54 93.9108 117.561 94.2355 116.9 94.7026C116.239 95.1584 115.908 95.973 115.908 97.1465C115.908 98.001 116.21 98.7017 116.814 99.2485C117.429 99.784 118.244 100.052 119.258 100.052C120.648 100.052 121.793 99.5675 122.693 98.5991C123.605 97.6193 124.06 96.3831 124.06 94.8906V93.1475ZM155.942 102H153.14V91.9512C153.14 90.0143 152.838 88.613 152.234 87.7471C151.642 86.8812 150.639 86.4482 149.226 86.4482C148.03 86.4482 147.01 86.9951 146.167 88.0889C145.335 89.1826 144.92 90.4928 144.92 92.0195V102H142.117V91.6094C142.117 88.1686 140.789 86.4482 138.135 86.4482C136.904 86.4482 135.89 86.9666 135.093 88.0034C134.295 89.0288 133.897 90.3675 133.897 92.0195V102H131.094V84.5H133.897V87.2686H133.965C135.207 85.1494 137.018 84.0898 139.4 84.0898C140.596 84.0898 141.638 84.4259 142.527 85.0981C143.416 85.759 144.025 86.6305 144.356 87.7129C145.654 85.2975 147.591 84.0898 150.166 84.0898C154.017 84.0898 155.942 86.4653 155.942 91.2163V102ZM172.717 102H169.914V99.2656H169.846C168.627 101.362 166.833 102.41 164.463 102.41C162.72 102.41 161.352 101.949 160.361 101.026C159.381 100.103 158.892 98.8783 158.892 97.3516C158.892 94.0817 160.817 92.179 164.668 91.6436L169.914 90.9087C169.914 87.9351 168.712 86.4482 166.308 86.4482C164.201 86.4482 162.298 87.166 160.6 88.6016V85.7305C162.321 84.6367 164.303 84.0898 166.548 84.0898C170.661 84.0898 172.717 86.266 172.717 90.6182V102ZM169.914 93.1475L165.693 93.7285C164.394 93.9108 163.415 94.2355 162.754 94.7026C162.093 95.1584 161.763 95.973 161.763 97.1465C161.763 98.001 162.065 98.7017 162.668 99.2485C163.284 99.784 164.098 100.052 165.112 100.052C166.502 100.052 167.647 99.5675 168.547 98.5991C169.459 97.6193 169.914 96.3831 169.914 94.8906V93.1475ZM191.884 100.599C191.884 107.024 188.808 110.237 182.656 110.237C180.491 110.237 178.6 109.827 176.982 109.007V106.204C178.953 107.298 180.833 107.845 182.622 107.845C186.928 107.845 189.082 105.555 189.082 100.975V99.0605H189.013C187.68 101.294 185.675 102.41 182.998 102.41C180.822 102.41 179.067 101.635 177.734 100.086C176.412 98.5251 175.752 96.4344 175.752 93.814C175.752 90.8403 176.464 88.4762 177.888 86.7217C179.323 84.9671 181.283 84.0898 183.767 84.0898C186.125 84.0898 187.874 85.0355 189.013 86.9268H189.082V84.5H191.884V100.599ZM189.082 94.0874V91.5068C189.082 90.1169 188.609 88.9263 187.663 87.9351C186.729 86.9438 185.561 86.4482 184.16 86.4482C182.428 86.4482 181.072 87.0806 180.092 88.3452C179.113 89.5985 178.623 91.3587 178.623 93.626C178.623 95.5742 179.09 97.1351 180.024 98.3086C180.97 99.4707 182.217 100.052 183.767 100.052C185.339 100.052 186.615 99.4935 187.595 98.377C188.586 97.2604 189.082 95.8306 189.082 94.0874ZM210.573 93.9507H198.217C198.263 95.8989 198.787 97.4028 199.79 98.4624C200.792 99.522 202.171 100.052 203.925 100.052C205.896 100.052 207.708 99.4023 209.36 98.1035V100.735C207.822 101.852 205.788 102.41 203.259 102.41C200.786 102.41 198.844 101.618 197.431 100.035C196.018 98.4396 195.312 96.2008 195.312 93.3184C195.312 90.5954 196.081 88.3794 197.619 86.6704C199.169 84.95 201.088 84.0898 203.378 84.0898C205.668 84.0898 207.44 84.8304 208.693 86.3115C209.947 87.7926 210.573 89.8491 210.573 92.481V93.9507ZM207.702 91.5752C207.691 89.9574 207.298 88.6984 206.523 87.7983C205.76 86.8983 204.694 86.4482 203.327 86.4482C202.006 86.4482 200.883 86.9211 199.96 87.8667C199.038 88.8123 198.468 90.0485 198.251 91.5752H207.702Z"/>
</mask>
<path d="M91.2212 102V77.4932H97.9888C106.625 77.4932 110.943 81.4751 110.943 89.439C110.943 93.2215 109.741 96.2635 107.337 98.5649C104.944 100.855 101.737 102 97.7153 102H91.2212ZM94.0923 80.0908V99.4023H97.7495C100.962 99.4023 103.463 98.5422 105.252 96.8218C107.041 95.1014 107.935 92.6632 107.935 89.5073C107.935 83.2297 104.597 80.0908 97.9204 80.0908H94.0923ZM126.863 102H124.06V99.2656H123.992C122.773 101.362 120.978 102.41 118.609 102.41C116.866 102.41 115.498 101.949 114.507 101.026C113.527 100.103 113.037 98.8783 113.037 97.3516C113.037 94.0817 114.963 92.179 118.814 91.6436L124.06 90.9087C124.06 87.9351 122.858 86.4482 120.454 86.4482C118.347 86.4482 116.444 87.166 114.746 88.6016V85.7305C116.467 84.6367 118.449 84.0898 120.694 84.0898C124.807 84.0898 126.863 86.266 126.863 90.6182V102ZM124.06 93.1475L119.839 93.7285C118.54 93.9108 117.561 94.2355 116.9 94.7026C116.239 95.1584 115.908 95.973 115.908 97.1465C115.908 98.001 116.21 98.7017 116.814 99.2485C117.429 99.784 118.244 100.052 119.258 100.052C120.648 100.052 121.793 99.5675 122.693 98.5991C123.605 97.6193 124.06 96.3831 124.06 94.8906V93.1475ZM155.942 102H153.14V91.9512C153.14 90.0143 152.838 88.613 152.234 87.7471C151.642 86.8812 150.639 86.4482 149.226 86.4482C148.03 86.4482 147.01 86.9951 146.167 88.0889C145.335 89.1826 144.92 90.4928 144.92 92.0195V102H142.117V91.6094C142.117 88.1686 140.789 86.4482 138.135 86.4482C136.904 86.4482 135.89 86.9666 135.093 88.0034C134.295 89.0288 133.897 90.3675 133.897 92.0195V102H131.094V84.5H133.897V87.2686H133.965C135.207 85.1494 137.018 84.0898 139.4 84.0898C140.596 84.0898 141.638 84.4259 142.527 85.0981C143.416 85.759 144.025 86.6305 144.356 87.7129C145.654 85.2975 147.591 84.0898 150.166 84.0898C154.017 84.0898 155.942 86.4653 155.942 91.2163V102ZM172.717 102H169.914V99.2656H169.846C168.627 101.362 166.833 102.41 164.463 102.41C162.72 102.41 161.352 101.949 160.361 101.026C159.381 100.103 158.892 98.8783 158.892 97.3516C158.892 94.0817 160.817 92.179 164.668 91.6436L169.914 90.9087C169.914 87.9351 168.712 86.4482 166.308 86.4482C164.201 86.4482 162.298 87.166 160.6 88.6016V85.7305C162.321 84.6367 164.303 84.0898 166.548 84.0898C170.661 84.0898 172.717 86.266 172.717 90.6182V102ZM169.914 93.1475L165.693 93.7285C164.394 93.9108 163.415 94.2355 162.754 94.7026C162.093 95.1584 161.763 95.973 161.763 97.1465C161.763 98.001 162.065 98.7017 162.668 99.2485C163.284 99.784 164.098 100.052 165.112 100.052C166.502 100.052 167.647 99.5675 168.547 98.5991C169.459 97.6193 169.914 96.3831 169.914 94.8906V93.1475ZM191.884 100.599C191.884 107.024 188.808 110.237 182.656 110.237C180.491 110.237 178.6 109.827 176.982 109.007V106.204C178.953 107.298 180.833 107.845 182.622 107.845C186.928 107.845 189.082 105.555 189.082 100.975V99.0605H189.013C187.68 101.294 185.675 102.41 182.998 102.41C180.822 102.41 179.067 101.635 177.734 100.086C176.412 98.5251 175.752 96.4344 175.752 93.814C175.752 90.8403 176.464 88.4762 177.888 86.7217C179.323 84.9671 181.283 84.0898 183.767 84.0898C186.125 84.0898 187.874 85.0355 189.013 86.9268H189.082V84.5H191.884V100.599ZM189.082 94.0874V91.5068C189.082 90.1169 188.609 88.9263 187.663 87.9351C186.729 86.9438 185.561 86.4482 184.16 86.4482C182.428 86.4482 181.072 87.0806 180.092 88.3452C179.113 89.5985 178.623 91.3587 178.623 93.626C178.623 95.5742 179.09 97.1351 180.024 98.3086C180.97 99.4707 182.217 100.052 183.767 100.052C185.339 100.052 186.615 99.4935 187.595 98.377C188.586 97.2604 189.082 95.8306 189.082 94.0874ZM210.573 93.9507H198.217C198.263 95.8989 198.787 97.4028 199.79 98.4624C200.792 99.522 202.171 100.052 203.925 100.052C205.896 100.052 207.708 99.4023 209.36 98.1035V100.735C207.822 101.852 205.788 102.41 203.259 102.41C200.786 102.41 198.844 101.618 197.431 100.035C196.018 98.4396 195.312 96.2008 195.312 93.3184C195.312 90.5954 196.081 88.3794 197.619 86.6704C199.169 84.95 201.088 84.0898 203.378 84.0898C205.668 84.0898 207.44 84.8304 208.693 86.3115C209.947 87.7926 210.573 89.8491 210.573 92.481V93.9507ZM207.702 91.5752C207.691 89.9574 207.298 88.6984 206.523 87.7983C205.76 86.8983 204.694 86.4482 203.327 86.4482C202.006 86.4482 200.883 86.9211 199.96 87.8667C199.038 88.8123 198.468 90.0485 198.251 91.5752H207.702Z" fill="white"/>
<path d="M91.2212 102H90.2212V103H91.2212V102ZM91.2212 77.4932V76.4932H90.2212V77.4932H91.2212ZM107.337 98.5649L108.028 99.2874L108.028 99.2873L107.337 98.5649ZM94.0923 80.0908V79.0908H93.0923V80.0908H94.0923ZM94.0923 99.4023H93.0923V100.402H94.0923V99.4023ZM105.252 96.8218L104.559 96.101L105.252 96.8218ZM91.2212 102H92.2212V77.4932H91.2212H90.2212V102H91.2212ZM91.2212 77.4932V78.4932H97.9888V77.4932V76.4932H91.2212V77.4932ZM97.9888 77.4932V78.4932C102.172 78.4932 105.123 79.4592 107.026 81.2148C108.915 82.9562 109.943 85.6329 109.943 89.439H110.943H111.943C111.943 85.2811 110.812 81.985 108.382 79.7445C105.968 77.5181 102.442 76.4932 97.9888 76.4932V77.4932ZM110.943 89.439H109.943C109.943 92.9896 108.825 95.7563 106.645 97.8426L107.337 98.5649L108.028 99.2873C110.657 96.7707 111.943 93.4535 111.943 89.439H110.943ZM107.337 98.5649L106.645 97.8425C104.477 99.9177 101.538 101 97.7153 101V102V103C101.936 103 105.411 101.792 108.028 99.2874L107.337 98.5649ZM97.7153 102V101H91.2212V102V103H97.7153V102ZM94.0923 80.0908H93.0923V99.4023H94.0923H95.0923V80.0908H94.0923ZM94.0923 99.4023V100.402H97.7495V99.4023V98.4023H94.0923V99.4023ZM97.7495 99.4023V100.402C101.142 100.402 103.92 99.4902 105.945 97.5425L105.252 96.8218L104.559 96.101C103.006 97.5941 100.783 98.4023 97.7495 98.4023V99.4023ZM105.252 96.8218L105.945 97.5425C107.98 95.5856 108.935 92.8572 108.935 89.5073H107.935H106.935C106.935 92.4693 106.102 94.6172 104.559 96.101L105.252 96.8218ZM107.935 89.5073H108.935C108.935 86.1981 108.052 83.5366 106.116 81.7164C104.192 79.9071 101.398 79.0908 97.9204 79.0908V80.0908V81.0908C101.119 81.0908 103.332 81.844 104.746 83.1735C106.149 84.4921 106.935 86.5389 106.935 89.5073H107.935ZM97.9204 80.0908V79.0908H94.0923V80.0908V81.0908H97.9204V80.0908ZM126.863 102V103H127.863V102H126.863ZM124.06 102H123.06V103H124.06V102ZM124.06 99.2656H125.06V98.2656H124.06V99.2656ZM123.992 99.2656V98.2656H123.417L123.128 98.7629L123.992 99.2656ZM114.507 101.026L113.821 101.754L113.826 101.758L114.507 101.026ZM118.814 91.6436L118.951 92.634L118.952 92.6339L118.814 91.6436ZM124.06 90.9087L124.199 91.899L125.06 91.7784V90.9087H124.06ZM114.746 88.6016H113.746V90.7568L115.392 89.3651L114.746 88.6016ZM114.746 85.7305L114.21 84.8866L113.746 85.1812V85.7305H114.746ZM124.06 93.1475H125.06V92.0004L123.924 92.1568L124.06 93.1475ZM119.839 93.7285L119.703 92.7379L119.7 92.7382L119.839 93.7285ZM116.9 94.7026L117.467 95.5259L117.477 95.5192L116.9 94.7026ZM116.814 99.2485L116.143 99.9897L116.15 99.9964L116.158 100.003L116.814 99.2485ZM122.693 98.5991L121.961 97.918L121.961 97.9183L122.693 98.5991ZM126.863 102V101H124.06V102V103H126.863V102ZM124.06 102H125.06V99.2656H124.06H123.06V102H124.06ZM124.06 99.2656V98.2656H123.992V99.2656V100.266H124.06V99.2656ZM123.992 99.2656L123.128 98.7629C122.082 100.56 120.612 101.41 118.609 101.41V102.41V103.41C121.345 103.41 123.463 102.164 124.856 99.7683L123.992 99.2656ZM118.609 102.41V101.41C117.043 101.41 115.946 100.999 115.189 100.294L114.507 101.026L113.826 101.758C115.05 102.898 116.688 103.41 118.609 103.41V102.41ZM114.507 101.026L115.193 100.298C114.441 99.5902 114.037 98.6433 114.037 97.3516H113.037H112.037C112.037 99.1132 112.613 100.616 113.822 101.754L114.507 101.026ZM113.037 97.3516H114.037C114.037 95.9244 114.45 94.9089 115.184 94.1835C115.94 93.4371 117.15 92.8846 118.951 92.634L118.814 91.6436L118.676 90.6531C116.627 90.938 114.949 91.6046 113.779 92.7609C112.587 93.9381 112.037 95.5088 112.037 97.3516H113.037ZM118.814 91.6436L118.952 92.6339L124.199 91.899L124.06 90.9087L123.922 89.9184L118.675 90.6532L118.814 91.6436ZM124.06 90.9087H125.06C125.06 89.3132 124.742 87.9312 123.937 86.9347C123.098 85.8975 121.873 85.4482 120.454 85.4482V86.4482V87.4482C121.439 87.4482 122.018 87.7424 122.381 88.192C122.778 88.6824 123.06 89.5306 123.06 90.9087H124.06ZM120.454 86.4482V85.4482C118.097 85.4482 115.968 86.2588 114.101 87.838L114.746 88.6016L115.392 89.3651C116.92 88.0732 118.597 87.4482 120.454 87.4482V86.4482ZM114.746 88.6016H115.746V85.7305H114.746H113.746V88.6016H114.746ZM114.746 85.7305L115.283 86.5744C116.827 85.5927 118.619 85.0898 120.694 85.0898V84.0898V83.0898C118.279 83.0898 116.107 83.6807 114.21 84.8866L114.746 85.7305ZM120.694 84.0898V85.0898C122.581 85.0898 123.817 85.5864 124.594 86.4088C125.381 87.2417 125.863 88.5825 125.863 90.6182H126.863H127.863C127.863 88.3016 127.317 86.3782 126.048 85.0351C124.768 83.6813 122.919 83.0898 120.694 83.0898V84.0898ZM126.863 90.6182H125.863V102H126.863H127.863V90.6182H126.863ZM124.06 93.1475L123.924 92.1568L119.703 92.7379L119.839 93.7285L119.976 94.7192L124.197 94.1381L124.06 93.1475ZM119.839 93.7285L119.7 92.7382C118.331 92.9304 117.17 93.2869 116.322 93.8861L116.9 94.7026L117.477 95.5192C117.951 95.1841 118.75 94.8912 119.978 94.7188L119.839 93.7285ZM116.9 94.7026L116.332 93.8794C115.29 94.5978 114.908 95.8057 114.908 97.1465H115.908H116.908C116.908 96.1403 117.187 95.7189 117.467 95.5259L116.9 94.7026ZM115.908 97.1465H114.908C114.908 98.2678 115.319 99.2431 116.143 99.9897L116.814 99.2485L117.486 98.5073C117.102 98.1603 116.908 97.7342 116.908 97.1465H115.908ZM116.814 99.2485L116.158 100.003C116.996 100.733 118.064 101.052 119.258 101.052V100.052V99.0518C118.425 99.0518 117.863 98.8354 117.471 98.4942L116.814 99.2485ZM119.258 100.052V101.052C120.91 101.052 122.326 100.463 123.426 99.2799L122.693 98.5991L121.961 97.9183C121.26 98.6717 120.386 99.0518 119.258 99.0518V100.052ZM122.693 98.5991L123.425 99.2802C124.529 98.0935 125.06 96.6043 125.06 94.8906H124.06H123.06C123.06 96.162 122.68 97.1451 121.961 97.918L122.693 98.5991ZM124.06 94.8906H125.06V93.1475H124.06H123.06V94.8906H124.06ZM155.942 102V103H156.942V102H155.942ZM153.14 102H152.14V103H153.14V102ZM152.234 87.7471L151.409 88.3118L151.414 88.3191L152.234 87.7471ZM146.167 88.0889L145.375 87.4783L145.371 87.4836L146.167 88.0889ZM144.92 102V103H145.92V102H144.92ZM142.117 102H141.117V103H142.117V102ZM135.093 88.0034L135.882 88.6174L135.885 88.6131L135.093 88.0034ZM133.897 102V103H134.897V102H133.897ZM131.094 102H130.094V103H131.094V102ZM131.094 84.5V83.5H130.094V84.5H131.094ZM133.897 84.5H134.897V83.5H133.897V84.5ZM133.897 87.2686H132.897V88.2686H133.897V87.2686ZM133.965 87.2686V88.2686H134.538L134.828 87.7742L133.965 87.2686ZM142.527 85.0981L141.924 85.8957L141.93 85.9006L142.527 85.0981ZM144.356 87.7129L143.399 88.0049L144.1 90.3L145.236 88.1865L144.356 87.7129ZM155.942 102V101H153.14V102V103H155.942V102ZM153.14 102H154.14V91.9512H153.14H152.14V102H153.14ZM153.14 91.9512H154.14C154.14 89.9575 153.838 88.2989 153.054 87.1751L152.234 87.7471L151.414 88.3191C151.838 88.9271 152.14 90.0712 152.14 91.9512H153.14ZM152.234 87.7471L153.059 87.1824C152.219 85.9546 150.843 85.4482 149.226 85.4482V86.4482V87.4482C150.435 87.4482 151.064 87.8078 151.409 88.3118L152.234 87.7471ZM149.226 86.4482V85.4482C147.669 85.4482 146.374 86.1819 145.375 87.4784L146.167 88.0889L146.959 88.6994C147.646 87.8083 148.39 87.4482 149.226 87.4482V86.4482ZM146.167 88.0889L145.371 87.4836C144.392 88.7707 143.92 90.2998 143.92 92.0195H144.92H145.92C145.92 90.6859 146.278 89.5945 146.963 88.6942L146.167 88.0889ZM144.92 92.0195H143.92V102H144.92H145.92V92.0195H144.92ZM144.92 102V101H142.117V102V103H144.92V102ZM142.117 102H143.117V91.6094H142.117H141.117V102H142.117ZM142.117 91.6094H143.117C143.117 89.7883 142.77 88.2388 141.913 87.1277C141.018 85.9673 139.696 85.4482 138.135 85.4482V86.4482V87.4482C139.229 87.4482 139.897 87.7894 140.33 88.3494C140.8 88.9586 141.117 89.9897 141.117 91.6094H142.117ZM138.135 86.4482V85.4482C136.572 85.4482 135.273 86.1288 134.3 87.3937L135.093 88.0034L135.885 88.6131C136.508 87.8044 137.237 87.4482 138.135 87.4482V86.4482ZM135.093 88.0034L134.304 87.3895C133.336 88.6333 132.897 90.2064 132.897 92.0195H133.897H134.897C134.897 90.5286 135.255 89.4243 135.882 88.6174L135.093 88.0034ZM133.897 92.0195H132.897V102H133.897H134.897V92.0195H133.897ZM133.897 102V101H131.094V102V103H133.897V102ZM131.094 102H132.094V84.5H131.094H130.094V102H131.094ZM131.094 84.5V85.5H133.897V84.5V83.5H131.094V84.5ZM133.897 84.5H132.897V87.2686H133.897H134.897V84.5H133.897ZM133.897 87.2686V88.2686H133.965V87.2686V86.2686H133.897V87.2686ZM133.965 87.2686L134.828 87.7742C135.897 85.9494 137.387 85.0898 139.4 85.0898V84.0898V83.0898C136.65 83.0898 134.517 84.3494 133.102 86.763L133.965 87.2686ZM139.4 84.0898V85.0898C140.395 85.0898 141.222 85.3648 141.924 85.8957L142.527 85.0981L143.13 84.3006C142.055 83.4871 140.797 83.0898 139.4 83.0898V84.0898ZM142.527 85.0981L141.93 85.9006C142.644 86.4311 143.13 87.1219 143.399 88.0049L144.356 87.7129L145.312 87.4209C144.921 86.1392 144.188 85.0869 143.124 84.2957L142.527 85.0981ZM144.356 87.7129L145.236 88.1865C145.82 87.1014 146.518 86.3388 147.311 85.8442C148.101 85.3516 149.041 85.0898 150.166 85.0898V84.0898V83.0898C148.716 83.0898 147.4 83.432 146.253 84.147C145.11 84.86 144.19 85.909 143.475 87.2393L144.356 87.7129ZM150.166 84.0898V85.0898C151.875 85.0898 152.997 85.6068 153.722 86.5011C154.479 87.4357 154.942 88.95 154.942 91.2163H155.942H156.942C156.942 88.7317 156.443 86.6827 155.275 85.2418C154.075 83.7607 152.308 83.0898 150.166 83.0898V84.0898ZM155.942 91.2163H154.942V102H155.942H156.942V91.2163H155.942ZM172.717 102V103H173.717V102H172.717ZM169.914 102H168.914V103H169.914V102ZM169.914 99.2656H170.914V98.2656H169.914V99.2656ZM169.846 99.2656V98.2656H169.271L168.982 98.7629L169.846 99.2656ZM160.361 101.026L159.676 101.754L159.68 101.758L160.361 101.026ZM164.668 91.6436L164.806 92.634L164.807 92.6339L164.668 91.6436ZM169.914 90.9087L170.053 91.899L170.914 91.7784V90.9087H169.914ZM160.6 88.6016H159.6V90.7568L161.246 89.3651L160.6 88.6016ZM160.6 85.7305L160.064 84.8866L159.6 85.1812V85.7305H160.6ZM169.914 93.1475H170.914V92.0004L169.778 92.1568L169.914 93.1475ZM165.693 93.7285L165.557 92.7379L165.554 92.7382L165.693 93.7285ZM162.754 94.7026L163.322 95.5259L163.331 95.5192L162.754 94.7026ZM162.668 99.2485L161.997 99.9897L162.004 99.9964L162.012 100.003L162.668 99.2485ZM168.547 98.5991L167.815 97.918L167.815 97.9183L168.547 98.5991ZM172.717 102V101H169.914V102V103H172.717V102ZM169.914 102H170.914V99.2656H169.914H168.914V102H169.914ZM169.914 99.2656V98.2656H169.846V99.2656V100.266H169.914V99.2656ZM169.846 99.2656L168.982 98.7629C167.936 100.56 166.466 101.41 164.463 101.41V102.41V103.41C167.199 103.41 169.318 102.164 170.711 99.7683L169.846 99.2656ZM164.463 102.41V101.41C162.897 101.41 161.8 100.999 161.043 100.294L160.361 101.026L159.68 101.758C160.905 102.898 162.542 103.41 164.463 103.41V102.41ZM160.361 101.026L161.047 100.298C160.295 99.5902 159.892 98.6433 159.892 97.3516H158.892H157.892C157.892 99.1132 158.467 100.616 159.676 101.754L160.361 101.026ZM158.892 97.3516H159.892C159.892 95.9244 160.304 94.9089 161.038 94.1835C161.794 93.4371 163.004 92.8846 164.806 92.634L164.668 91.6436L164.53 90.6531C162.481 90.938 160.803 91.6046 159.633 92.7609C158.441 93.9381 157.892 95.5088 157.892 97.3516H158.892ZM164.668 91.6436L164.807 92.6339L170.053 91.899L169.914 90.9087L169.776 89.9184L164.529 90.6532L164.668 91.6436ZM169.914 90.9087H170.914C170.914 89.3132 170.596 87.9312 169.791 86.9347C168.952 85.8975 167.728 85.4482 166.308 85.4482V86.4482V87.4482C167.293 87.4482 167.872 87.7424 168.235 88.192C168.632 88.6824 168.914 89.5306 168.914 90.9087H169.914ZM166.308 86.4482V85.4482C163.951 85.4482 161.822 86.2588 159.955 87.838L160.6 88.6016L161.246 89.3651C162.774 88.0732 164.451 87.4482 166.308 87.4482V86.4482ZM160.6 88.6016H161.6V85.7305H160.6H159.6V88.6016H160.6ZM160.6 85.7305L161.137 86.5744C162.681 85.5927 164.473 85.0898 166.548 85.0898V84.0898V83.0898C164.133 83.0898 161.961 83.6807 160.064 84.8866L160.6 85.7305ZM166.548 84.0898V85.0898C168.435 85.0898 169.671 85.5864 170.448 86.4088C171.235 87.2417 171.717 88.5825 171.717 90.6182H172.717H173.717C173.717 88.3016 173.171 86.3782 171.902 85.0351C170.622 83.6813 168.773 83.0898 166.548 83.0898V84.0898ZM172.717 90.6182H171.717V102H172.717H173.717V90.6182H172.717ZM169.914 93.1475L169.778 92.1568L165.557 92.7379L165.693 93.7285L165.83 94.7192L170.051 94.1381L169.914 93.1475ZM165.693 93.7285L165.554 92.7382C164.185 92.9304 163.024 93.2869 162.177 93.8861L162.754 94.7026L163.331 95.5192C163.805 95.1841 164.604 94.8912 165.832 94.7188L165.693 93.7285ZM162.754 94.7026L162.186 93.8794C161.144 94.5978 160.763 95.8057 160.763 97.1465H161.763H162.763C162.763 96.1403 163.042 95.7189 163.322 95.5259L162.754 94.7026ZM161.763 97.1465H160.763C160.763 98.2678 161.173 99.2431 161.997 99.9897L162.668 99.2485L163.34 98.5073C162.956 98.1603 162.763 97.7342 162.763 97.1465H161.763ZM162.668 99.2485L162.012 100.003C162.85 100.733 163.918 101.052 165.112 101.052V100.052V99.0518C164.279 99.0518 163.717 98.8354 163.325 98.4942L162.668 99.2485ZM165.112 100.052V101.052C166.764 101.052 168.18 100.463 169.28 99.2799L168.547 98.5991L167.815 97.9183C167.115 98.6717 166.24 99.0518 165.112 99.0518V100.052ZM168.547 98.5991L169.279 99.2802C170.383 98.0935 170.914 96.6043 170.914 94.8906H169.914H168.914C168.914 96.162 168.534 97.1451 167.815 97.918L168.547 98.5991ZM169.914 94.8906H170.914V93.1475H169.914H168.914V94.8906H169.914ZM176.982 109.007H175.982V109.621L176.53 109.899L176.982 109.007ZM176.982 106.204L177.467 105.33L175.982 104.506V106.204H176.982ZM189.082 99.0605H190.082V98.0605H189.082V99.0605ZM189.013 99.0605V98.0605H188.446L188.155 98.548L189.013 99.0605ZM177.734 100.086L176.971 100.732L176.976 100.738L177.734 100.086ZM177.888 86.7217L177.114 86.0884L177.111 86.0915L177.888 86.7217ZM189.013 86.9268L188.157 87.4428L188.448 87.9268H189.013V86.9268ZM189.082 86.9268V87.9268H190.082V86.9268H189.082ZM189.082 84.5V83.5H188.082V84.5H189.082ZM191.884 84.5H192.884V83.5H191.884V84.5ZM187.663 87.9351L186.936 88.621L186.94 88.6253L187.663 87.9351ZM180.092 88.3452L180.88 88.9611L180.883 88.9577L180.092 88.3452ZM180.024 98.3086L179.242 98.9315L179.248 98.9398L180.024 98.3086ZM187.595 98.377L186.847 97.7131L186.843 97.7174L187.595 98.377ZM191.884 100.599H190.884C190.884 103.668 190.149 105.784 188.855 107.136C187.569 108.48 185.567 109.237 182.656 109.237V110.237V111.237C185.898 111.237 188.51 110.389 190.3 108.519C192.082 106.658 192.884 103.955 192.884 100.599H191.884ZM182.656 110.237V109.237C180.618 109.237 178.887 108.852 177.434 108.115L176.982 109.007L176.53 109.899C178.313 110.803 180.364 111.237 182.656 111.237V110.237ZM176.982 109.007H177.982V106.204H176.982H175.982V109.007H176.982ZM176.982 106.204L176.497 107.078C178.578 108.234 180.625 108.845 182.622 108.845V107.845V106.845C181.041 106.845 179.328 106.362 177.467 105.33L176.982 106.204ZM182.622 107.845V108.845C184.946 108.845 186.868 108.224 188.195 106.812C189.512 105.412 190.082 103.404 190.082 100.975H189.082H188.082C188.082 103.125 187.575 104.552 186.738 105.442C185.912 106.32 184.605 106.845 182.622 106.845V107.845ZM189.082 100.975H190.082V99.0605H189.082H188.082V100.975H189.082ZM189.082 99.0605V98.0605H189.013V99.0605V100.061H189.082V99.0605ZM189.013 99.0605L188.155 98.548C187.009 100.468 185.336 101.41 182.998 101.41V102.41V103.41C186.014 103.41 188.352 102.119 189.872 99.5731L189.013 99.0605ZM182.998 102.41V101.41C181.092 101.41 179.622 100.747 178.492 99.4338L177.734 100.086L176.976 100.738C178.513 102.524 180.552 103.41 182.998 103.41V102.41ZM177.734 100.086L178.497 99.4397C177.367 98.1054 176.752 96.2658 176.752 93.814H175.752H174.752C174.752 96.603 175.458 98.9448 176.971 100.732L177.734 100.086ZM175.752 93.814H176.752C176.752 90.9968 177.425 88.8788 178.664 87.3519L177.888 86.7217L177.111 86.0915C175.503 88.0737 174.752 90.6839 174.752 93.814H175.752ZM177.888 86.7217L178.662 87.3549C179.888 85.8566 181.55 85.0898 183.767 85.0898V84.0898V83.0898C181.016 83.0898 178.759 84.0776 177.114 86.0884L177.888 86.7217ZM183.767 84.0898V85.0898C185.804 85.0898 187.213 85.8759 188.157 87.4428L189.013 86.9268L189.87 86.4107C188.535 84.1951 186.447 83.0898 183.767 83.0898V84.0898ZM189.013 86.9268V87.9268H189.082V86.9268V85.9268H189.013V86.9268ZM189.082 86.9268H190.082V84.5H189.082H188.082V86.9268H189.082ZM189.082 84.5V85.5H191.884V84.5V83.5H189.082V84.5ZM191.884 84.5H190.884V100.599H191.884H192.884V84.5H191.884ZM189.082 94.0874H190.082V91.5068H189.082H188.082V94.0874H189.082ZM189.082 91.5068H190.082C190.082 89.864 189.513 88.425 188.387 87.2448L187.663 87.9351L186.94 88.6253C187.705 89.4275 188.082 90.3697 188.082 91.5068H189.082ZM187.663 87.9351L188.391 87.2492C187.262 86.0511 185.828 85.4482 184.16 85.4482V86.4482V87.4482C185.295 87.4482 186.196 87.8366 186.936 88.6209L187.663 87.9351ZM184.16 86.4482V85.4482C182.148 85.4482 180.489 86.2013 179.302 87.7328L180.092 88.3452L180.883 88.9577C181.656 87.9598 182.708 87.4482 184.16 87.4482V86.4482ZM180.092 88.3452L179.305 87.7293C178.14 89.2195 177.623 91.228 177.623 93.626H178.623H179.623C179.623 91.4895 180.086 89.9774 180.88 88.9611L180.092 88.3452ZM178.623 93.626H177.623C177.623 95.7322 178.129 97.534 179.242 98.9314L180.024 98.3086L180.806 97.6858C180.05 96.7362 179.623 95.4162 179.623 93.626H178.623ZM180.024 98.3086L179.248 98.9398C180.391 100.344 181.928 101.052 183.767 101.052V100.052V99.0518C182.506 99.0518 181.548 98.5971 180.8 97.6774L180.024 98.3086ZM183.767 100.052V101.052C185.608 101.052 187.165 100.383 188.347 99.0365L187.595 98.377L186.843 97.7174C186.066 98.6036 185.07 99.0518 183.767 99.0518V100.052ZM187.595 98.377L188.343 99.0408C189.523 97.7112 190.082 96.0318 190.082 94.0874H189.082H188.082C188.082 95.6293 187.649 96.8096 186.847 97.7131L187.595 98.377ZM210.573 93.9507V94.9507H211.573V93.9507H210.573ZM198.217 93.9507V92.9507H197.194L197.218 93.9741L198.217 93.9507ZM209.36 98.1035H210.36V96.0453L208.742 97.3174L209.36 98.1035ZM209.36 100.735L209.947 101.545L210.36 101.245V100.735H209.36ZM197.431 100.035L196.683 100.698L196.685 100.7L197.431 100.035ZM197.619 86.6704L196.876 86.0012L196.876 86.0014L197.619 86.6704ZM207.702 91.5752V92.5752H208.709L208.702 91.5682L207.702 91.5752ZM206.523 87.7983L205.76 88.4452L205.765 88.4507L206.523 87.7983ZM198.251 91.5752L197.261 91.4348L197.1 92.5752H198.251V91.5752ZM210.573 93.9507V92.9507H198.217V93.9507V94.9507H210.573V93.9507ZM198.217 93.9507L197.218 93.9741C197.267 96.0853 197.84 97.8571 199.063 99.1497L199.79 98.4624L200.516 97.7751C199.734 96.9486 199.259 95.7126 199.217 93.9273L198.217 93.9507ZM199.79 98.4624L199.063 99.1497C200.292 100.449 201.956 101.052 203.925 101.052V100.052V99.0518C202.385 99.0518 201.292 98.5952 200.516 97.7751L199.79 98.4624ZM203.925 100.052V101.052C206.136 101.052 208.162 100.317 209.978 98.8896L209.36 98.1035L208.742 97.3174C207.254 98.4875 205.657 99.0518 203.925 99.0518V100.052ZM209.36 98.1035H208.36V100.735H209.36H210.36V98.1035H209.36ZM209.36 100.735L208.772 99.9261C207.454 100.883 205.646 101.41 203.259 101.41V102.41V103.41C205.93 103.41 208.19 102.82 209.947 101.545L209.36 100.735ZM203.259 102.41V101.41C201.02 101.41 199.368 100.704 198.177 99.369L197.431 100.035L196.685 100.7C198.319 102.532 200.553 103.41 203.259 103.41V102.41ZM197.431 100.035L198.18 99.3716C196.979 98.0155 196.312 96.0436 196.312 93.3184H195.312H194.312C194.312 96.3581 195.058 98.8637 196.683 100.698L197.431 100.035ZM195.312 93.3184H196.312C196.312 90.7943 197.019 88.8318 198.362 87.3394L197.619 86.6704L196.876 86.0014C195.143 87.927 194.312 90.3965 194.312 93.3184H195.312ZM197.619 86.6704L198.362 87.3396C199.724 85.8272 201.375 85.0898 203.378 85.0898V84.0898V83.0898C200.801 83.0898 198.613 84.0729 196.876 86.0012L197.619 86.6704ZM203.378 84.0898V85.0898C205.433 85.0898 206.902 85.7421 207.93 86.9575L208.693 86.3115L209.457 85.6656C207.979 83.9187 205.904 83.0898 203.378 83.0898V84.0898ZM208.693 86.3115L207.93 86.9575C208.984 88.2026 209.573 90.0011 209.573 92.481H210.573H211.573C211.573 89.6971 210.91 87.3827 209.457 85.6656L208.693 86.3115ZM210.573 92.481H209.573V93.9507H210.573H211.573V92.481H210.573ZM207.702 91.5752L208.702 91.5682C208.69 89.7993 208.258 88.2815 207.281 87.146L206.523 87.7983L205.765 88.4507C206.337 89.1153 206.692 90.1154 206.702 91.5822L207.702 91.5752ZM206.523 87.7983L207.286 87.1515C206.301 85.9908 204.936 85.4482 203.327 85.4482V86.4482V87.4482C204.452 87.4482 205.218 87.8058 205.76 88.4451L206.523 87.7983ZM203.327 86.4482V85.4482C201.736 85.4482 200.356 86.0297 199.245 87.1683L199.96 87.8667L200.676 88.5651C201.411 87.8124 202.275 87.4482 203.327 87.4482V86.4482ZM199.96 87.8667L199.245 87.1683C198.15 88.2904 197.503 89.734 197.261 91.4348L198.251 91.5752L199.242 91.7156C199.433 90.363 199.925 89.3343 200.676 88.5651L199.96 87.8667ZM198.251 91.5752V92.5752H207.702V91.5752V90.5752H198.251V91.5752Z" fill="black" mask="url(#path-3-outside-2_0_1)"/>
<mask id="path-5-outside-3_0_1" maskUnits="userSpaceOnUse" x="17" y="103" width="270" height="48" fill="black">
<rect fill="white" x="17" y="103" width="270" height="48"/>
<path d="M50.8496 147.242C47.6855 148.883 43.75 149.703 39.043 149.703C32.9492 149.703 28.0664 147.779 24.3945 143.932C20.7227 140.084 18.8867 135.035 18.8867 128.785C18.8867 122.066 20.9473 116.637 25.0684 112.496C29.209 108.355 34.4336 106.285 40.7422 106.285C44.8047 106.285 48.1738 106.861 50.8496 108.014V114.928C48.0176 113.248 44.8926 112.408 41.4746 112.408C36.9238 112.408 33.2324 113.863 30.4004 116.773C27.5879 119.684 26.1816 123.57 26.1816 128.434C26.1816 133.062 27.5 136.754 30.1367 139.508C32.7734 142.242 36.2402 143.609 40.5371 143.609C44.502 143.609 47.9395 142.672 50.8496 140.797V147.242ZM79.284 149H72.6922V144.312H72.575C70.5047 147.906 67.4676 149.703 63.4637 149.703C60.5145 149.703 58.2 148.902 56.5203 147.301C54.8602 145.699 54.0301 143.58 54.0301 140.943C54.0301 135.279 57.2918 131.979 63.8152 131.041L72.7215 129.781C72.7215 125.504 70.6902 123.365 66.6277 123.365C63.0535 123.365 59.8309 124.596 56.9598 127.057V121.109C60.1238 119.234 63.7762 118.297 67.9168 118.297C75.4949 118.297 79.284 122.027 79.284 129.488V149ZM72.7215 134.264L66.4227 135.143C64.4695 135.396 62.9949 135.875 61.9988 136.578C61.0223 137.262 60.534 138.473 60.534 140.211C60.534 141.48 60.9832 142.525 61.8816 143.346C62.7996 144.146 64.0203 144.547 65.5438 144.547C67.6141 144.547 69.323 143.824 70.6707 142.379C72.0379 140.914 72.7215 139.078 72.7215 136.871V134.264ZM92.6305 149H85.8043V104.586H92.6305V149ZM121.182 147.623C118.78 149.01 115.938 149.703 112.657 149.703C108.204 149.703 104.61 148.316 101.875 145.543C99.141 142.75 97.7738 139.137 97.7738 134.703C97.7738 129.762 99.2387 125.797 102.168 122.809C105.118 119.801 109.053 118.297 113.975 118.297C116.709 118.297 119.121 118.775 121.211 119.732V126.061C119.121 124.498 116.895 123.717 114.532 123.717C111.661 123.717 109.307 124.693 107.471 126.646C105.635 128.58 104.717 131.119 104.717 134.264C104.717 137.369 105.577 139.82 107.295 141.617C109.034 143.414 111.358 144.312 114.268 144.312C116.709 144.312 119.014 143.443 121.182 141.705V147.623ZM152.312 149H145.515V144.254H145.398C143.425 147.887 140.359 149.703 136.198 149.703C129.109 149.703 125.564 145.445 125.564 136.93V119H132.361V136.227C132.361 141.617 134.441 144.312 138.601 144.312C140.613 144.312 142.263 143.57 143.552 142.086C144.861 140.602 145.515 138.658 145.515 136.256V119H152.312V149ZM166.215 149H159.389V104.586H166.215V149ZM196.319 149H189.727V144.312H189.61C187.54 147.906 184.503 149.703 180.499 149.703C177.55 149.703 175.235 148.902 173.555 147.301C171.895 145.699 171.065 143.58 171.065 140.943C171.065 135.279 174.327 131.979 180.85 131.041L189.757 129.781C189.757 125.504 187.725 123.365 183.663 123.365C180.089 123.365 176.866 124.596 173.995 127.057V121.109C177.159 119.234 180.811 118.297 184.952 118.297C192.53 118.297 196.319 122.027 196.319 129.488V149ZM189.757 134.264L183.458 135.143C181.505 135.396 180.03 135.875 179.034 136.578C178.057 137.262 177.569 138.473 177.569 140.211C177.569 141.48 178.018 142.525 178.917 143.346C179.835 144.146 181.055 144.547 182.579 144.547C184.649 144.547 186.358 143.824 187.706 142.379C189.073 140.914 189.757 139.078 189.757 136.871V134.264ZM218.66 148.678C217.332 149.342 215.584 149.674 213.416 149.674C207.595 149.674 204.685 146.881 204.685 141.295V124.332H199.675V119H204.685V112.057L211.482 110.123V119H218.66V124.332H211.482V139.332C211.482 141.109 211.804 142.379 212.449 143.141C213.093 143.902 214.168 144.283 215.671 144.283C216.824 144.283 217.82 143.951 218.66 143.287V148.678ZM235.668 149.703C231.039 149.703 227.338 148.307 224.565 145.514C221.811 142.701 220.434 138.98 220.434 134.352C220.434 129.312 221.87 125.377 224.741 122.545C227.631 119.713 231.518 118.297 236.401 118.297C241.088 118.297 244.741 119.674 247.358 122.428C249.975 125.182 251.284 129 251.284 133.883C251.284 138.668 249.868 142.506 247.036 145.396C244.223 148.268 240.434 149.703 235.668 149.703ZM235.991 123.717C233.334 123.717 231.235 124.645 229.692 126.5C228.149 128.355 227.377 130.914 227.377 134.176C227.377 137.32 228.159 139.801 229.721 141.617C231.284 143.414 233.373 144.312 235.991 144.312C238.666 144.312 240.717 143.424 242.143 141.646C243.588 139.869 244.311 137.34 244.311 134.059C244.311 130.758 243.588 128.209 242.143 126.412C240.717 124.615 238.666 123.717 235.991 123.717ZM273.829 125.475C273.009 124.83 271.827 124.508 270.284 124.508C268.273 124.508 266.593 125.416 265.245 127.232C263.898 129.049 263.224 131.52 263.224 134.645V149H256.427V119H263.224V125.182H263.341C264.005 123.072 265.021 121.432 266.388 120.26C267.775 119.068 269.318 118.473 271.017 118.473C272.247 118.473 273.185 118.658 273.829 119.029V125.475ZM284.773 106.988L284.217 136.637H278.65L277.889 106.988H284.773ZM281.521 149.586C280.35 149.586 279.354 149.215 278.533 148.473C277.713 147.711 277.303 146.793 277.303 145.719C277.303 144.605 277.713 143.658 278.533 142.877C279.354 142.096 280.35 141.705 281.521 141.705C282.654 141.705 283.631 142.096 284.451 142.877C285.291 143.658 285.711 144.605 285.711 145.719C285.711 146.793 285.291 147.711 284.451 148.473C283.631 149.215 282.654 149.586 281.521 149.586Z"/>
</mask>
<path d="M50.8496 147.242C47.6855 148.883 43.75 149.703 39.043 149.703C32.9492 149.703 28.0664 147.779 24.3945 143.932C20.7227 140.084 18.8867 135.035 18.8867 128.785C18.8867 122.066 20.9473 116.637 25.0684 112.496C29.209 108.355 34.4336 106.285 40.7422 106.285C44.8047 106.285 48.1738 106.861 50.8496 108.014V114.928C48.0176 113.248 44.8926 112.408 41.4746 112.408C36.9238 112.408 33.2324 113.863 30.4004 116.773C27.5879 119.684 26.1816 123.57 26.1816 128.434C26.1816 133.062 27.5 136.754 30.1367 139.508C32.7734 142.242 36.2402 143.609 40.5371 143.609C44.502 143.609 47.9395 142.672 50.8496 140.797V147.242ZM79.284 149H72.6922V144.312H72.575C70.5047 147.906 67.4676 149.703 63.4637 149.703C60.5145 149.703 58.2 148.902 56.5203 147.301C54.8602 145.699 54.0301 143.58 54.0301 140.943C54.0301 135.279 57.2918 131.979 63.8152 131.041L72.7215 129.781C72.7215 125.504 70.6902 123.365 66.6277 123.365C63.0535 123.365 59.8309 124.596 56.9598 127.057V121.109C60.1238 119.234 63.7762 118.297 67.9168 118.297C75.4949 118.297 79.284 122.027 79.284 129.488V149ZM72.7215 134.264L66.4227 135.143C64.4695 135.396 62.9949 135.875 61.9988 136.578C61.0223 137.262 60.534 138.473 60.534 140.211C60.534 141.48 60.9832 142.525 61.8816 143.346C62.7996 144.146 64.0203 144.547 65.5438 144.547C67.6141 144.547 69.323 143.824 70.6707 142.379C72.0379 140.914 72.7215 139.078 72.7215 136.871V134.264ZM92.6305 149H85.8043V104.586H92.6305V149ZM121.182 147.623C118.78 149.01 115.938 149.703 112.657 149.703C108.204 149.703 104.61 148.316 101.875 145.543C99.141 142.75 97.7738 139.137 97.7738 134.703C97.7738 129.762 99.2387 125.797 102.168 122.809C105.118 119.801 109.053 118.297 113.975 118.297C116.709 118.297 119.121 118.775 121.211 119.732V126.061C119.121 124.498 116.895 123.717 114.532 123.717C111.661 123.717 109.307 124.693 107.471 126.646C105.635 128.58 104.717 131.119 104.717 134.264C104.717 137.369 105.577 139.82 107.295 141.617C109.034 143.414 111.358 144.312 114.268 144.312C116.709 144.312 119.014 143.443 121.182 141.705V147.623ZM152.312 149H145.515V144.254H145.398C143.425 147.887 140.359 149.703 136.198 149.703C129.109 149.703 125.564 145.445 125.564 136.93V119H132.361V136.227C132.361 141.617 134.441 144.312 138.601 144.312C140.613 144.312 142.263 143.57 143.552 142.086C144.861 140.602 145.515 138.658 145.515 136.256V119H152.312V149ZM166.215 149H159.389V104.586H166.215V149ZM196.319 149H189.727V144.312H189.61C187.54 147.906 184.503 149.703 180.499 149.703C177.55 149.703 175.235 148.902 173.555 147.301C171.895 145.699 171.065 143.58 171.065 140.943C171.065 135.279 174.327 131.979 180.85 131.041L189.757 129.781C189.757 125.504 187.725 123.365 183.663 123.365C180.089 123.365 176.866 124.596 173.995 127.057V121.109C177.159 119.234 180.811 118.297 184.952 118.297C192.53 118.297 196.319 122.027 196.319 129.488V149ZM189.757 134.264L183.458 135.143C181.505 135.396 180.03 135.875 179.034 136.578C178.057 137.262 177.569 138.473 177.569 140.211C177.569 141.48 178.018 142.525 178.917 143.346C179.835 144.146 181.055 144.547 182.579 144.547C184.649 144.547 186.358 143.824 187.706 142.379C189.073 140.914 189.757 139.078 189.757 136.871V134.264ZM218.66 148.678C217.332 149.342 215.584 149.674 213.416 149.674C207.595 149.674 204.685 146.881 204.685 141.295V124.332H199.675V119H204.685V112.057L211.482 110.123V119H218.66V124.332H211.482V139.332C211.482 141.109 211.804 142.379 212.449 143.141C213.093 143.902 214.168 144.283 215.671 144.283C216.824 144.283 217.82 143.951 218.66 143.287V148.678ZM235.668 149.703C231.039 149.703 227.338 148.307 224.565 145.514C221.811 142.701 220.434 138.98 220.434 134.352C220.434 129.312 221.87 125.377 224.741 122.545C227.631 119.713 231.518 118.297 236.401 118.297C241.088 118.297 244.741 119.674 247.358 122.428C249.975 125.182 251.284 129 251.284 133.883C251.284 138.668 249.868 142.506 247.036 145.396C244.223 148.268 240.434 149.703 235.668 149.703ZM235.991 123.717C233.334 123.717 231.235 124.645 229.692 126.5C228.149 128.355 227.377 130.914 227.377 134.176C227.377 137.32 228.159 139.801 229.721 141.617C231.284 143.414 233.373 144.312 235.991 144.312C238.666 144.312 240.717 143.424 242.143 141.646C243.588 139.869 244.311 137.34 244.311 134.059C244.311 130.758 243.588 128.209 242.143 126.412C240.717 124.615 238.666 123.717 235.991 123.717ZM273.829 125.475C273.009 124.83 271.827 124.508 270.284 124.508C268.273 124.508 266.593 125.416 265.245 127.232C263.898 129.049 263.224 131.52 263.224 134.645V149H256.427V119H263.224V125.182H263.341C264.005 123.072 265.021 121.432 266.388 120.26C267.775 119.068 269.318 118.473 271.017 118.473C272.247 118.473 273.185 118.658 273.829 119.029V125.475ZM284.773 106.988L284.217 136.637H278.65L277.889 106.988H284.773ZM281.521 149.586C280.35 149.586 279.354 149.215 278.533 148.473C277.713 147.711 277.303 146.793 277.303 145.719C277.303 144.605 277.713 143.658 278.533 142.877C279.354 142.096 280.35 141.705 281.521 141.705C282.654 141.705 283.631 142.096 284.451 142.877C285.291 143.658 285.711 144.605 285.711 145.719C285.711 146.793 285.291 147.711 284.451 148.473C283.631 149.215 282.654 149.586 281.521 149.586Z" fill="white"/>
<path d="M50.8496 147.242L51.3099 148.13L51.8496 147.85V147.242H50.8496ZM24.3945 143.932L23.6711 144.622L24.3945 143.932ZM25.0684 112.496L24.3613 111.789L24.3596 111.791L25.0684 112.496ZM50.8496 108.014H51.8496V107.356L51.2451 107.095L50.8496 108.014ZM50.8496 114.928L50.3395 115.788L51.8496 116.683V114.928H50.8496ZM30.4004 116.773L29.6837 116.076L29.6813 116.078L30.4004 116.773ZM30.1367 139.508L29.4144 140.199L29.4169 140.202L30.1367 139.508ZM50.8496 140.797H51.8496V138.963L50.308 139.956L50.8496 140.797ZM50.8496 147.242L50.3893 146.354C47.4057 147.902 43.6392 148.703 39.043 148.703V149.703V150.703C43.8608 150.703 47.9654 149.864 51.3099 148.13L50.8496 147.242ZM39.043 149.703V148.703C33.179 148.703 28.573 146.862 25.118 143.241L24.3945 143.932L23.6711 144.622C27.5598 148.697 32.7195 150.703 39.043 150.703V149.703ZM24.3945 143.932L25.118 143.241C21.6543 139.612 19.8867 134.826 19.8867 128.785H18.8867H17.8867C17.8867 135.244 19.791 140.556 23.6711 144.622L24.3945 143.932ZM18.8867 128.785H19.8867C19.8867 122.288 21.8708 117.126 25.7771 113.202L25.0684 112.496L24.3596 111.791C20.0237 116.147 17.8867 121.845 17.8867 128.785H18.8867ZM25.0684 112.496L25.7755 113.203C29.7131 109.266 34.6761 107.285 40.7422 107.285V106.285V105.285C34.191 105.285 28.7049 107.445 24.3613 111.789L25.0684 112.496ZM40.7422 106.285V107.285C44.7187 107.285 47.9422 107.85 50.4541 108.932L50.8496 108.014L51.2451 107.095C48.4055 105.872 44.8907 105.285 40.7422 105.285V106.285ZM50.8496 108.014H49.8496V114.928H50.8496H51.8496V108.014H50.8496ZM50.8496 114.928L51.3597 114.068C48.3673 112.293 45.065 111.408 41.4746 111.408V112.408V113.408C44.7202 113.408 47.6679 114.203 50.3395 115.788L50.8496 114.928ZM41.4746 112.408V111.408C36.6896 111.408 32.7276 112.948 29.6837 116.076L30.4004 116.773L31.1171 117.471C33.7373 114.778 37.158 113.408 41.4746 113.408V112.408ZM30.4004 116.773L29.6813 116.078C26.6533 119.212 25.1816 123.367 25.1816 128.434H26.1816H27.1816C27.1816 123.774 28.5225 120.156 31.1195 117.468L30.4004 116.773ZM26.1816 128.434H25.1816C25.1816 133.262 26.5628 137.221 29.4144 140.199L30.1367 139.508L30.859 138.816C28.4372 136.287 27.1816 132.863 27.1816 128.434H26.1816ZM30.1367 139.508L29.4169 140.202C32.2675 143.158 36.0078 144.609 40.5371 144.609V143.609V142.609C36.4727 142.609 33.2793 141.326 30.8566 138.814L30.1367 139.508ZM40.5371 143.609V144.609C44.6654 144.609 48.2971 143.631 51.3912 141.638L50.8496 140.797L50.308 139.956C47.5818 141.713 44.3385 142.609 40.5371 142.609V143.609ZM50.8496 140.797H49.8496V147.242H50.8496H51.8496V140.797H50.8496ZM79.284 149V150H80.284V149H79.284ZM72.6922 149H71.6922V150H72.6922V149ZM72.6922 144.312H73.6922V143.312H72.6922V144.312ZM72.575 144.312V143.312H71.997L71.7085 143.813L72.575 144.312ZM56.5203 147.301L55.826 148.02L55.8302 148.025L56.5203 147.301ZM63.8152 131.041L63.6752 130.051L63.673 130.051L63.8152 131.041ZM72.7215 129.781L72.8615 130.771L73.7215 130.65V129.781H72.7215ZM56.9598 127.057H55.9598V129.231L57.6106 127.816L56.9598 127.057ZM56.9598 121.109L56.45 120.249L55.9598 120.54V121.109H56.9598ZM72.7215 134.264H73.7215V133.114L72.5833 133.273L72.7215 134.264ZM66.4227 135.143L66.5516 136.134L66.5609 136.133L66.4227 135.143ZM61.9988 136.578L62.5723 137.397L62.5755 137.395L61.9988 136.578ZM61.8816 143.346L61.2074 144.084L61.2157 144.092L61.2243 144.099L61.8816 143.346ZM70.6707 142.379L69.9396 141.697L69.9393 141.697L70.6707 142.379ZM79.284 149V148H72.6922V149V150H79.284V149ZM72.6922 149H73.6922V144.312H72.6922H71.6922V149H72.6922ZM72.6922 144.312V143.312H72.575V144.312V145.312H72.6922V144.312ZM72.575 144.312L71.7085 143.813C69.8088 147.111 67.0944 148.703 63.4637 148.703V149.703V150.703C67.8407 150.703 71.2006 148.702 73.4415 144.812L72.575 144.312ZM63.4637 149.703V148.703C60.6989 148.703 58.6575 147.957 57.2104 146.577L56.5203 147.301L55.8302 148.025C57.7425 149.848 60.33 150.703 63.4637 150.703V149.703ZM56.5203 147.301L57.2146 146.581C55.7784 145.196 55.0301 143.351 55.0301 140.943H54.0301H53.0301C53.0301 143.809 53.9419 146.203 55.826 148.02L56.5203 147.301ZM54.0301 140.943H55.0301C55.0301 138.313 55.781 136.346 57.1877 134.923C58.6126 133.481 60.8235 132.481 63.9575 132.031L63.8152 131.041L63.673 130.051C60.2835 130.538 57.6019 131.658 55.7651 133.517C53.91 135.394 53.0301 137.91 53.0301 140.943H54.0301ZM63.8152 131.041L63.9553 132.031L72.8615 130.771L72.7215 129.781L72.5814 128.791L63.6752 130.051L63.8152 131.041ZM72.7215 129.781H73.7215C73.7215 127.501 73.1809 125.605 71.9231 124.281C70.6561 122.947 68.8267 122.365 66.6277 122.365V123.365V124.365C68.4913 124.365 69.7087 124.853 70.473 125.658C71.2464 126.472 71.7215 127.784 71.7215 129.781H72.7215ZM66.6277 123.365V122.365C62.8002 122.365 59.3499 123.691 56.309 126.297L56.9598 127.057L57.6106 127.816C60.3118 125.501 63.3068 124.365 66.6277 124.365V123.365ZM56.9598 127.057H57.9598V121.109H56.9598H55.9598V127.057H56.9598ZM56.9598 121.109L57.4696 121.97C60.4606 120.197 63.9325 119.297 67.9168 119.297V118.297V117.297C63.6199 117.297 59.7871 118.272 56.45 120.249L56.9598 121.109ZM67.9168 118.297V119.297C71.5556 119.297 74.1003 120.192 75.7406 121.807C77.3781 123.419 78.284 125.916 78.284 129.488H79.284H80.284C80.284 125.6 79.2954 122.5 77.1438 120.382C74.995 118.267 71.8561 117.297 67.9168 117.297V118.297ZM79.284 129.488H78.284V149H79.284H80.284V129.488H79.284ZM72.7215 134.264L72.5833 133.273L66.2845 134.152L66.4227 135.143L66.5609 136.133L72.8597 135.254L72.7215 134.264ZM66.4227 135.143L66.2937 134.151C64.2679 134.414 62.6087 134.924 61.4221 135.761L61.9988 136.578L62.5755 137.395C63.3812 136.826 64.6712 136.379 66.5516 136.134L66.4227 135.143ZM61.9988 136.578L61.4254 135.759C60.0736 136.705 59.534 138.305 59.534 140.211H60.534H61.534C61.534 138.64 61.971 137.818 62.5723 137.397L61.9988 136.578ZM60.534 140.211H59.534C59.534 141.748 60.0914 143.065 61.2074 144.084L61.8816 143.346L62.5559 142.607C61.875 141.986 61.534 141.213 61.534 140.211H60.534ZM61.8816 143.346L61.2243 144.099C62.3666 145.096 63.8413 145.547 65.5438 145.547V144.547V143.547C64.1993 143.547 63.2326 143.197 62.539 142.592L61.8816 143.346ZM65.5438 144.547V145.547C67.8765 145.547 69.8554 144.72 71.4021 143.061L70.6707 142.379L69.9393 141.697C68.7907 142.929 67.3516 143.547 65.5438 143.547V144.547ZM70.6707 142.379L71.4018 143.061C72.9599 141.392 73.7215 139.303 73.7215 136.871H72.7215H71.7215C71.7215 138.853 71.1159 140.436 69.9396 141.697L70.6707 142.379ZM72.7215 136.871H73.7215V134.264H72.7215H71.7215V136.871H72.7215ZM92.6305 149V150H93.6305V149H92.6305ZM85.8043 149H84.8043V150H85.8043V149ZM85.8043 104.586V103.586H84.8043V104.586H85.8043ZM92.6305 104.586H93.6305V103.586H92.6305V104.586ZM92.6305 149V148H85.8043V149V150H92.6305V149ZM85.8043 149H86.8043V104.586H85.8043H84.8043V149H85.8043ZM85.8043 104.586V105.586H92.6305V104.586V103.586H85.8043V104.586ZM92.6305 104.586H91.6305V149H92.6305H93.6305V104.586H92.6305ZM121.182 147.623L121.682 148.489L122.182 148.2V147.623H121.182ZM101.875 145.543L101.161 146.243L101.163 146.245L101.875 145.543ZM102.168 122.809L101.454 122.108L101.454 122.109L102.168 122.809ZM121.211 119.732H122.211V119.09L121.628 118.823L121.211 119.732ZM121.211 126.061L120.613 126.861L122.211 128.057V126.061H121.211ZM107.471 126.646L108.196 127.335L108.2 127.331L107.471 126.646ZM107.295 141.617L106.573 142.308L106.577 142.312L107.295 141.617ZM121.182 141.705H122.182V139.622L120.556 140.925L121.182 141.705ZM121.182 147.623L120.682 146.757C118.457 148.041 115.795 148.703 112.657 148.703V149.703V150.703C116.081 150.703 119.102 149.978 121.682 148.489L121.182 147.623ZM112.657 149.703V148.703C108.429 148.703 105.106 147.396 102.587 144.841L101.875 145.543L101.163 146.245C104.113 149.237 107.978 150.703 112.657 150.703V149.703ZM101.875 145.543L102.59 144.843C100.064 142.263 98.7738 138.913 98.7738 134.703H97.7738H96.7738C96.7738 139.36 98.2184 143.237 101.161 146.243L101.875 145.543ZM97.7738 134.703H98.7738C98.7738 129.973 100.169 126.277 102.882 123.509L102.168 122.809L101.454 122.109C98.3086 125.317 96.7738 129.551 96.7738 134.703H97.7738ZM102.168 122.809L102.882 123.509C105.612 120.725 109.273 119.297 113.975 119.297V118.297V117.297C108.833 117.297 104.623 118.876 101.454 122.108L102.168 122.809ZM113.975 118.297V119.297C116.593 119.297 118.858 119.755 120.795 120.642L121.211 119.732L121.628 118.823C119.385 117.796 116.826 117.297 113.975 117.297V118.297ZM121.211 119.732H120.211V126.061H121.211H122.211V119.732H121.211ZM121.211 126.061L121.81 125.26C119.566 123.582 117.133 122.717 114.532 122.717V123.717V124.717C116.657 124.717 118.677 125.414 120.613 126.861L121.211 126.061ZM114.532 123.717V122.717C111.407 122.717 108.782 123.792 106.742 125.962L107.471 126.646L108.2 127.331C109.832 125.595 111.915 124.717 114.532 124.717V123.717ZM107.471 126.646L106.746 125.958C104.702 128.11 103.717 130.912 103.717 134.264H104.717H105.717C105.717 131.326 106.568 129.05 108.196 127.335L107.471 126.646ZM104.717 134.264H103.717C103.717 137.559 104.634 140.282 106.573 142.308L107.295 141.617L108.018 140.926C106.519 139.359 105.717 137.179 105.717 134.264H104.717ZM107.295 141.617L106.577 142.312C108.534 144.336 111.135 145.312 114.268 145.312V144.312V143.312C111.58 143.312 109.533 142.492 108.014 140.922L107.295 141.617ZM114.268 144.312V145.312C116.968 145.312 119.488 144.345 121.808 142.485L121.182 141.705L120.556 140.925C118.54 142.542 116.451 143.312 114.268 143.312V144.312ZM121.182 141.705H120.182V147.623H121.182H122.182V141.705H121.182ZM152.312 149V150H153.312V149H152.312ZM145.515 149H144.515V150H145.515V149ZM145.515 144.254H146.515V143.254H145.515V144.254ZM145.398 144.254V143.254H144.803L144.519 143.777L145.398 144.254ZM125.564 119V118H124.564V119H125.564ZM132.361 119H133.361V118H132.361V119ZM143.552 142.086L142.802 141.425L142.797 141.43L143.552 142.086ZM145.515 119V118H144.515V119H145.515ZM152.312 119H153.312V118H152.312V119ZM152.312 149V148H145.515V149V150H152.312V149ZM145.515 149H146.515V144.254H145.515H144.515V149H145.515ZM145.515 144.254V143.254H145.398V144.254V145.254H145.515V144.254ZM145.398 144.254L144.519 143.777C143.605 145.46 142.463 146.678 141.109 147.48C139.754 148.283 138.13 148.703 136.198 148.703V149.703V150.703C138.427 150.703 140.416 150.215 142.128 149.201C143.84 148.187 145.218 146.68 146.276 144.731L145.398 144.254ZM136.198 149.703V148.703C132.861 148.703 130.523 147.71 128.991 145.87C127.43 143.995 126.564 141.073 126.564 136.93H125.564H124.564C124.564 141.302 125.47 144.767 127.454 147.15C129.467 149.568 132.446 150.703 136.198 150.703V149.703ZM125.564 136.93H126.564V119H125.564H124.564V136.93H125.564ZM125.564 119V120H132.361V119V118H125.564V119ZM132.361 119H131.361V136.227H132.361H133.361V119H132.361ZM132.361 136.227H131.361C131.361 139.023 131.895 141.303 133.129 142.902C134.401 144.55 136.287 145.312 138.601 145.312V144.312V143.312C136.754 143.312 135.521 142.728 134.712 141.68C133.866 140.583 133.361 138.821 133.361 136.227H132.361ZM138.601 144.312V145.312C140.894 145.312 142.823 144.45 144.307 142.742L143.552 142.086L142.797 141.43C141.703 142.69 140.331 143.312 138.601 143.312V144.312ZM143.552 142.086L144.302 142.747C145.804 141.043 146.515 138.847 146.515 136.256H145.515H144.515C144.515 138.469 143.917 140.16 142.802 141.425L143.552 142.086ZM145.515 136.256H146.515V119H145.515H144.515V136.256H145.515ZM145.515 119V120H152.312V119V118H145.515V119ZM152.312 119H151.312V149H152.312H153.312V119H152.312ZM166.215 149V150H167.215V149H166.215ZM159.389 149H158.389V150H159.389V149ZM159.389 104.586V103.586H158.389V104.586H159.389ZM166.215 104.586H167.215V103.586H166.215V104.586ZM166.215 149V148H159.389V149V150H166.215V149ZM159.389 149H160.389V104.586H159.389H158.389V149H159.389ZM159.389 104.586V105.586H166.215V104.586V103.586H159.389V104.586ZM166.215 104.586H165.215V149H166.215H167.215V104.586H166.215ZM196.319 149V150H197.319V149H196.319ZM189.727 149H188.727V150H189.727V149ZM189.727 144.312H190.727V143.312H189.727V144.312ZM189.61 144.312V143.312H189.032L188.744 143.813L189.61 144.312ZM173.555 147.301L172.861 148.02L172.865 148.025L173.555 147.301ZM180.85 131.041L180.71 130.051L180.708 130.051L180.85 131.041ZM189.757 129.781L189.897 130.771L190.757 130.65V129.781H189.757ZM173.995 127.057H172.995V129.231L174.646 127.816L173.995 127.057ZM173.995 121.109L173.485 120.249L172.995 120.54V121.109H173.995ZM189.757 134.264H190.757V133.114L189.618 133.273L189.757 134.264ZM183.458 135.143L183.587 136.134L183.596 136.133L183.458 135.143ZM179.034 136.578L179.607 137.397L179.611 137.395L179.034 136.578ZM178.917 143.346L178.243 144.084L178.251 144.092L178.259 144.099L178.917 143.346ZM187.706 142.379L186.975 141.697L186.974 141.697L187.706 142.379ZM196.319 149V148H189.727V149V150H196.319V149ZM189.727 149H190.727V144.312H189.727H188.727V149H189.727ZM189.727 144.312V143.312H189.61V144.312V145.312H189.727V144.312ZM189.61 144.312L188.744 143.813C186.844 147.111 184.13 148.703 180.499 148.703V149.703V150.703C184.876 150.703 188.236 148.702 190.477 144.812L189.61 144.312ZM180.499 149.703V148.703C177.734 148.703 175.693 147.957 174.246 146.577L173.555 147.301L172.865 148.025C174.778 149.848 177.365 150.703 180.499 150.703V149.703ZM173.555 147.301L174.25 146.581C172.814 145.196 172.065 143.351 172.065 140.943H171.065H170.065C170.065 143.809 170.977 146.203 172.861 148.02L173.555 147.301ZM171.065 140.943H172.065C172.065 138.313 172.816 136.346 174.223 134.923C175.648 133.481 177.859 132.481 180.993 132.031L180.85 131.041L180.708 130.051C177.319 130.538 174.637 131.658 172.8 133.517C170.945 135.394 170.065 137.91 170.065 140.943H171.065ZM180.85 131.041L180.99 132.031L189.897 130.771L189.757 129.781L189.617 128.791L180.71 130.051L180.85 131.041ZM189.757 129.781H190.757C190.757 127.501 190.216 125.605 188.958 124.281C187.691 122.947 185.862 122.365 183.663 122.365V123.365V124.365C185.526 124.365 186.744 124.853 187.508 125.658C188.282 126.472 188.757 127.784 188.757 129.781H189.757ZM183.663 123.365V122.365C179.835 122.365 176.385 123.691 173.344 126.297L173.995 127.057L174.646 127.816C177.347 125.501 180.342 124.365 183.663 124.365V123.365ZM173.995 127.057H174.995V121.109H173.995H172.995V127.057H173.995ZM173.995 121.109L174.505 121.97C177.496 120.197 180.968 119.297 184.952 119.297V118.297V117.297C180.655 117.297 176.822 118.272 173.485 120.249L173.995 121.109ZM184.952 118.297V119.297C188.591 119.297 191.135 120.192 192.776 121.807C194.413 123.419 195.319 125.916 195.319 129.488H196.319H197.319C197.319 125.6 196.331 122.5 194.179 120.382C192.03 118.267 188.891 117.297 184.952 117.297V118.297ZM196.319 129.488H195.319V149H196.319H197.319V129.488H196.319ZM189.757 134.264L189.618 133.273L183.32 134.152L183.458 135.143L183.596 136.133L189.895 135.254L189.757 134.264ZM183.458 135.143L183.329 134.151C181.303 134.414 179.644 134.924 178.457 135.761L179.034 136.578L179.611 137.395C180.416 136.826 181.706 136.379 183.587 136.134L183.458 135.143ZM179.034 136.578L178.461 135.759C177.109 136.705 176.569 138.305 176.569 140.211H177.569H178.569C178.569 138.64 179.006 137.818 179.607 137.397L179.034 136.578ZM177.569 140.211H176.569C176.569 141.748 177.127 143.065 178.243 144.084L178.917 143.346L179.591 142.607C178.91 141.986 178.569 141.213 178.569 140.211H177.569ZM178.917 143.346L178.259 144.099C179.402 145.096 180.876 145.547 182.579 145.547V144.547V143.547C181.234 143.547 180.268 143.197 179.574 142.592L178.917 143.346ZM182.579 144.547V145.547C184.912 145.547 186.891 144.72 188.437 143.061L187.706 142.379L186.974 141.697C185.826 142.929 184.387 143.547 182.579 143.547V144.547ZM187.706 142.379L188.437 143.061C189.995 141.392 190.757 139.303 190.757 136.871H189.757H188.757C188.757 138.853 188.151 140.436 186.975 141.697L187.706 142.379ZM189.757 136.871H190.757V134.264H189.757H188.757V136.871H189.757ZM218.66 148.678L219.107 149.572L219.66 149.296V148.678H218.66ZM204.685 124.332H205.685V123.332H204.685V124.332ZM199.675 124.332H198.675V125.332H199.675V124.332ZM199.675 119V118H198.675V119H199.675ZM204.685 119V120H205.685V119H204.685ZM204.685 112.057L204.412 111.095L203.685 111.301V112.057H204.685ZM211.482 110.123H212.482V108.799L211.208 109.161L211.482 110.123ZM211.482 119H210.482V120H211.482V119ZM218.66 119H219.66V118H218.66V119ZM218.66 124.332V125.332H219.66V124.332H218.66ZM211.482 124.332V123.332H210.482V124.332H211.482ZM218.66 143.287H219.66V141.222L218.04 142.503L218.66 143.287ZM218.66 148.678L218.213 147.783C217.072 148.353 215.494 148.674 213.416 148.674V149.674V150.674C215.673 150.674 217.591 150.33 219.107 149.572L218.66 148.678ZM213.416 149.674V148.674C210.65 148.674 208.76 148.01 207.56 146.858C206.368 145.713 205.685 143.923 205.685 141.295H204.685H203.685C203.685 144.253 204.458 146.652 206.175 148.301C207.885 149.942 210.361 150.674 213.416 150.674V149.674ZM204.685 141.295H205.685V124.332H204.685H203.685V141.295H204.685ZM204.685 124.332V123.332H199.675V124.332V125.332H204.685V124.332ZM199.675 124.332H200.675V119H199.675H198.675V124.332H199.675ZM199.675 119V120H204.685V119V118H199.675V119ZM204.685 119H205.685V112.057H204.685H203.685V119H204.685ZM204.685 112.057L204.959 113.018L211.756 111.085L211.482 110.123L211.208 109.161L204.412 111.095L204.685 112.057ZM211.482 110.123H210.482V119H211.482H212.482V110.123H211.482ZM211.482 119V120H218.66V119V118H211.482V119ZM218.66 119H217.66V124.332H218.66H219.66V119H218.66ZM218.66 124.332V123.332H211.482V124.332V125.332H218.66V124.332ZM211.482 124.332H210.482V139.332H211.482H212.482V124.332H211.482ZM211.482 139.332H210.482C210.482 141.18 210.807 142.749 211.685 143.787L212.449 143.141L213.212 142.495C212.801 142.009 212.482 141.039 212.482 139.332H211.482ZM212.449 143.141L211.685 143.787C212.6 144.867 214.025 145.283 215.671 145.283V144.283V143.283C214.311 143.283 213.587 142.938 213.212 142.495L212.449 143.141ZM215.671 144.283V145.283C217.031 145.283 218.25 144.886 219.28 144.072L218.66 143.287L218.04 142.503C217.39 143.016 216.617 143.283 215.671 143.283V144.283ZM218.66 143.287H217.66V148.678H218.66H219.66V143.287H218.66ZM224.565 145.514L223.85 146.213L223.855 146.218L224.565 145.514ZM224.741 122.545L224.041 121.831L224.038 121.833L224.741 122.545ZM247.036 145.396L246.321 144.697L246.321 144.697L247.036 145.396ZM229.721 141.617L228.963 142.269L228.966 142.273L229.721 141.617ZM242.143 141.646L241.367 141.016L241.363 141.021L242.143 141.646ZM242.143 126.412L241.36 127.034L241.364 127.039L242.143 126.412ZM235.668 149.703V148.703C231.255 148.703 227.827 147.38 225.274 144.809L224.565 145.514L223.855 146.218C226.849 149.233 230.824 150.703 235.668 150.703V149.703ZM224.565 145.514L225.279 144.814C222.74 142.221 221.434 138.768 221.434 134.352H220.434H219.434C219.434 139.193 220.882 143.181 223.85 146.213L224.565 145.514ZM220.434 134.352H221.434C221.434 129.509 222.807 125.857 225.443 123.257L224.741 122.545L224.038 121.833C220.932 124.897 219.434 129.116 219.434 134.352H220.434ZM224.741 122.545L225.44 123.259C228.107 120.647 231.722 119.297 236.401 119.297V118.297V117.297C231.314 117.297 227.156 118.779 224.041 121.831L224.741 122.545ZM236.401 118.297V119.297C240.883 119.297 244.247 120.606 246.633 123.117L247.358 122.428L248.083 121.739C245.234 118.742 241.294 117.297 236.401 117.297V118.297ZM247.358 122.428L246.633 123.117C249.027 125.636 250.284 129.18 250.284 133.883H251.284H252.284C252.284 128.82 250.923 124.727 248.083 121.739L247.358 122.428ZM251.284 133.883H250.284C250.284 138.457 248.937 142.027 246.321 144.697L247.036 145.396L247.75 146.096C250.798 142.985 252.284 138.878 252.284 133.883H251.284ZM247.036 145.396L246.321 144.697C243.731 147.34 240.219 148.703 235.668 148.703V149.703V150.703C240.649 150.703 244.715 149.195 247.75 146.096L247.036 145.396ZM235.991 123.717V122.717C233.071 122.717 230.677 123.752 228.923 125.861L229.692 126.5L230.461 127.139C231.793 125.537 233.598 124.717 235.991 124.717V123.717ZM229.692 126.5L228.923 125.861C227.185 127.95 226.377 130.763 226.377 134.176H227.377H228.377C228.377 131.065 229.112 128.761 230.461 127.139L229.692 126.5ZM227.377 134.176H226.377C226.377 137.484 227.201 140.221 228.963 142.269L229.721 141.617L230.479 140.965C229.116 139.38 228.377 137.157 228.377 134.176H227.377ZM229.721 141.617L228.966 142.273C230.739 144.312 233.116 145.312 235.991 145.312V144.312V143.312C233.631 143.312 231.828 142.516 230.476 140.961L229.721 141.617ZM235.991 144.312V145.312C238.911 145.312 241.273 144.329 242.923 142.272L242.143 141.646L241.363 141.021C240.161 142.519 238.422 143.312 235.991 143.312V144.312ZM242.143 141.646L242.919 142.277C244.56 140.259 245.311 137.473 245.311 134.059H244.311H243.311C243.311 137.207 242.616 139.48 241.367 141.016L242.143 141.646ZM244.311 134.059H245.311C245.311 130.626 244.561 127.822 242.922 125.785L242.143 126.412L241.364 127.039C242.616 128.595 243.311 130.89 243.311 134.059H244.311ZM242.143 126.412L242.926 125.791C241.278 123.713 238.915 122.717 235.991 122.717V123.717V124.717C238.418 124.717 240.156 125.517 241.36 127.034L242.143 126.412ZM273.829 125.475L273.211 126.261L274.829 127.532V125.475H273.829ZM263.224 149V150H264.224V149H263.224ZM256.427 149H255.427V150H256.427V149ZM256.427 119V118H255.427V119H256.427ZM263.224 119H264.224V118H263.224V119ZM263.224 125.182H262.224V126.182H263.224V125.182ZM263.341 125.182V126.182H264.075L264.295 125.482L263.341 125.182ZM266.388 120.26L267.039 121.019L267.04 121.018L266.388 120.26ZM273.829 119.029H274.829V118.451L274.328 118.163L273.829 119.029ZM273.829 125.475L274.447 124.688C273.384 123.853 271.948 123.508 270.284 123.508V124.508V125.508C271.706 125.508 272.634 125.807 273.211 126.261L273.829 125.475ZM270.284 124.508V123.508C267.913 123.508 265.952 124.602 264.442 126.637L265.245 127.232L266.048 127.828C267.234 126.23 268.632 125.508 270.284 125.508V124.508ZM265.245 127.232L264.442 126.637C262.926 128.68 262.224 131.385 262.224 134.645H263.224H264.224C264.224 131.654 264.869 129.417 266.048 127.828L265.245 127.232ZM263.224 134.645H262.224V149H263.224H264.224V134.645H263.224ZM263.224 149V148H256.427V149V150H263.224V149ZM256.427 149H257.427V119H256.427H255.427V149H256.427ZM256.427 119V120H263.224V119V118H256.427V119ZM263.224 119H262.224V125.182H263.224H264.224V119H263.224ZM263.224 125.182V126.182H263.341V125.182V124.182H263.224V125.182ZM263.341 125.182L264.295 125.482C264.916 123.51 265.843 122.044 267.039 121.019L266.388 120.26L265.737 119.501C264.199 120.819 263.095 122.634 262.387 124.881L263.341 125.182ZM266.388 120.26L267.04 121.018C268.26 119.97 269.576 119.473 271.017 119.473V118.473V117.473C269.06 117.473 267.289 118.167 265.736 119.501L266.388 120.26ZM271.017 118.473V119.473C272.174 119.473 272.907 119.652 273.33 119.896L273.829 119.029L274.328 118.163C273.463 117.664 272.32 117.473 271.017 117.473V118.473ZM273.829 119.029H272.829V125.475H273.829H274.829V119.029H273.829ZM284.773 106.988L285.773 107.007L285.792 105.988H284.773V106.988ZM284.217 136.637V137.637H285.198L285.217 136.655L284.217 136.637ZM278.65 136.637L277.651 136.662L277.676 137.637H278.65V136.637ZM277.889 106.988V105.988H276.863L276.889 107.014L277.889 106.988ZM278.533 148.473L277.853 149.206L277.862 149.214L278.533 148.473ZM284.451 142.877L283.761 143.601L283.77 143.609L284.451 142.877ZM284.451 148.473L285.122 149.214L285.123 149.213L284.451 148.473ZM284.773 106.988L283.774 106.97L283.217 136.618L284.217 136.637L285.217 136.655L285.773 107.007L284.773 106.988ZM284.217 136.637V135.637H278.65V136.637V137.637H284.217V136.637ZM278.65 136.637L279.65 136.611L278.888 106.963L277.889 106.988L276.889 107.014L277.651 136.662L278.65 136.637ZM277.889 106.988V107.988H284.773V106.988V105.988H277.889V106.988ZM281.521 149.586V148.586C280.581 148.586 279.829 148.296 279.204 147.731L278.533 148.473L277.862 149.214C278.878 150.133 280.118 150.586 281.521 150.586V149.586ZM278.533 148.473L279.214 147.74C278.587 147.158 278.303 146.502 278.303 145.719H277.303H276.303C276.303 147.084 276.838 148.264 277.853 149.205L278.533 148.473ZM277.303 145.719H278.303C278.303 144.885 278.597 144.197 279.223 143.601L278.533 142.877L277.844 142.153C276.829 143.119 276.303 144.326 276.303 145.719H277.303ZM278.533 142.877L279.223 143.601C279.85 143.004 280.597 142.705 281.521 142.705V141.705V140.705C280.103 140.705 278.857 141.188 277.844 142.153L278.533 142.877ZM281.521 141.705V142.705C282.398 142.705 283.127 142.997 283.762 143.601L284.451 142.877L285.141 142.153C284.135 141.194 282.911 140.705 281.521 140.705V141.705ZM284.451 142.877L283.77 143.609C284.414 144.208 284.711 144.893 284.711 145.719H285.711H286.711C286.711 144.318 286.169 143.109 285.132 142.145L284.451 142.877ZM285.711 145.719H284.711C284.711 146.494 284.423 147.148 283.779 147.732L284.451 148.473L285.123 149.213C286.159 148.274 286.711 147.092 286.711 145.719H285.711ZM284.451 148.473L283.78 147.731C283.149 148.303 282.413 148.586 281.521 148.586V149.586V150.586C282.896 150.586 284.113 150.127 285.122 149.214L284.451 148.473Z" fill="black" mask="url(#path-5-outside-3_0_1)"/>
</svg>
