<svg width="287" height="169" viewBox="0 0 287 169" fill="none" xmlns="http://www.w3.org/2000/svg">
<style>
    @keyframes spin {
        0% {transform: rotate(-360deg);}
        17% {transform: rotate(-720deg);}
        33% {transform: rotate(-1080deg);}
        50% {transform: rotate(-1440deg);}
        65% {transform: rotate(-1800deg);}
        100% {transform: rotate(-2160deg);}
    }

    @keyframes drop {
        from {transform: translateY(-169px);}
        to {transform: translateY(0px);}
    }

    @keyframes spawn {
        from {transform: translateY(169px);}
        to {transform: translateY(0px);}
    }

    @keyframes angle-it {
        0% {transform: rotate(180deg);}
        100% {transform: rotate(360deg);}
    }

    #pokeball {
        transform-origin: 50% 50%;
        animation: spin 1s linear;
    }

    .top-text {
        transform-origin: 50% 50%;
        animation: drop .5s cubic-bezier(0.88, 0.04, 1, 1);
    }

    .bottom-text {
        transform-origin: 50% 50%;
        animation: spawn .5s cubic-bezier(0.88, 0.04, 1, 1);
    }

    .MY-text {
        animation: angle-it 0.45s cubic-bezier(0.895, 0.030, 0.685, 0.220) both;
    }
</style>
<g clip-path="url(#clip0_0_1)" id="pokeball">
<path d="M122.153 86.0772C125.361 97.1855 135.82 105.544 147.78 105.544C160.219 105.544 169.827 97.1571 173.177 86.0772H211.887C208.947 110.078 193.102 131.297 169.823 139.64H169.819C144.155 148.842 115.016 140.796 97.6981 119.739C89.8538 110.119 84.9818 98.4216 83.6777 86.0772H122.153ZM135.479 78.8912C135.479 62.9121 159.291 63.1676 160.086 78.8912C159.274 94.6061 135.48 94.8697 135.479 78.8912ZM92.3244 45.7485C105.996 22.8829 133.359 10.31 159.627 15.3511C187.773 20.741 208.468 43.9312 211.875 71.7242H173.177C169.827 60.6282 160.199 52.2572 147.78 52.2572C135.756 52.2574 125.414 60.6323 122.185 71.7242H83.6816C84.6576 62.544 87.606 53.6834 92.3244 45.7485Z" fill="url(#paint0_linear_0_1)"/>
<path d="M226.733 78.8868C226.282 46.0688 206.191 16.6818 175.445 4.95299C144.457 -6.85696 107.916 3.01035 86.9602 28.6134C66.1062 54.1111 62.9469 90.8466 79.9318 119.276C96.8843 147.645 130.116 162.266 162.484 156.438C199.39 149.799 225.808 116.644 226.704 79.7304C226.729 79.4499 226.738 79.1684 226.733 78.8868ZM92.3258 45.7484C105.997 22.8828 133.361 10.3104 159.628 15.3516C187.774 20.7415 208.47 43.9315 211.877 71.7246H173.178C169.828 60.6284 160.2 52.2576 147.782 52.2576C135.757 52.2576 125.416 60.6325 122.187 71.7246H83.6833C84.6592 62.5444 87.6073 53.6835 92.3258 45.7484ZM160.087 78.8909C159.276 94.6061 135.482 94.8697 135.482 78.8909C135.482 62.9117 159.292 63.1672 160.087 78.8909ZM169.82 139.64C144.157 148.842 115.017 140.796 97.6995 119.739C89.8552 110.119 84.9833 98.4217 83.6792 86.0772H122.155C125.363 97.1855 135.822 105.544 147.782 105.544C160.221 105.544 169.828 97.1571 173.178 86.0772H211.889C208.949 110.078 193.103 131.297 169.824 139.64H169.82Z" fill="#323033"/>
<path d="M127.578 109.723C127.647 110.691 127.37 111.557 126.748 112.318C126.125 113.079 125.295 113.528 124.257 113.667C123.289 113.736 122.424 113.459 121.663 112.836C116.959 108.893 113.258 104.12 110.56 98.5164C107.931 92.8442 106.617 86.8257 106.617 80.4611C106.617 69.7385 110.145 60.3995 117.201 52.444L110.664 44.9728C109.972 44.2119 109.661 43.3472 109.73 42.3787C109.799 41.341 110.214 40.5108 110.975 39.8883C111.736 39.1965 112.601 38.8852 113.57 38.9544C114.607 39.0236 115.437 39.4386 116.06 40.1995L122.493 47.4632C129.826 41.5831 138.197 38.6431 147.605 38.6431C157.359 38.6431 166.006 41.7906 173.547 48.0858L181.122 40.4071C181.814 39.6462 182.643 39.2657 183.612 39.2657C184.65 39.2657 185.515 39.6115 186.207 40.3034C186.967 40.9951 187.348 41.8598 187.348 42.8975C187.348 43.866 187.001 44.6962 186.31 45.3879L178.735 53.2742C185.307 61.0913 188.593 70.1536 188.593 80.4611C188.593 86.9636 187.209 93.086 184.442 98.8279C181.745 104.5 177.974 109.274 173.131 113.147C172.37 113.77 171.472 114.047 170.433 113.978C169.465 113.839 168.669 113.39 168.047 112.628C167.424 111.868 167.148 111.003 167.217 110.034C167.355 108.997 167.805 108.166 168.566 107.544C172.509 104.292 175.622 100.315 177.905 95.611C180.188 90.9073 181.329 85.8572 181.329 80.4611C181.329 71.6063 178.424 63.893 172.613 57.321C166.871 50.7492 159.745 47.0136 151.237 46.1142L151.548 57.321C156.806 58.1512 161.164 60.6416 164.623 64.7923C168.151 68.8738 169.915 73.6124 169.915 79.0083C169.915 85.0956 167.771 90.2843 163.481 94.5736C159.192 98.862 154.004 101.007 147.916 101.007C141.829 101.007 136.64 98.862 132.351 94.5736C128.062 90.2843 125.918 85.0956 125.918 79.0083C125.918 73.6124 127.647 68.8738 131.106 64.7923C134.634 60.6416 139.027 58.1512 144.284 57.321L143.973 46.1142C135.464 47.0136 128.304 50.7492 122.493 57.321C116.752 63.893 113.881 71.6063 113.881 80.4611C113.881 85.7875 114.988 90.7686 117.201 95.4033C119.415 100.038 122.459 103.982 126.333 107.233C127.094 107.856 127.509 108.685 127.578 109.723ZM137.436 68.6317C134.6 71.4679 133.181 74.9268 133.181 79.0083C133.181 83.0897 134.6 86.5832 137.436 89.4886C140.341 92.3251 143.835 93.743 147.916 93.743C151.997 93.743 155.457 92.3251 158.293 89.4886C161.199 86.5832 162.652 83.0897 162.652 79.0083C162.652 74.9268 161.199 71.4679 158.293 68.6317C155.457 65.7261 151.997 64.2734 147.916 64.2734C143.835 64.2734 140.341 65.7261 137.436 68.6317ZM144.492 82.7441C143.454 81.7059 142.935 80.4611 142.935 79.0083C142.935 77.5555 143.454 76.3104 144.492 75.2727C145.53 74.2351 146.775 73.7162 148.228 73.7162C149.68 73.7162 150.925 74.2351 151.963 75.2727C153.001 76.3104 153.52 77.5555 153.52 79.0083C153.52 80.4611 153.001 81.7059 151.963 82.7441C150.925 83.7816 149.68 84.3007 148.228 84.3007C146.775 84.3007 145.53 83.7816 144.492 82.7441Z" fill="#323033"/>
</g>
<mask id="path-4-outside-1_0_1" maskUnits="userSpaceOnUse" x="-0.356926" y="17.1019" width="109.029" height="103.997" fill="black">
<rect fill="white" x="-0.356926" y="17.1019" width="109.029" height="103.997"/>
<path d="M4.71361 83.4129L12.0141 77.0667L42.5352 92.4311L42.9211 92.0957L31.9539 59.7333L39.2544 53.3871L67.8825 86.3198L62.1578 91.2962L42.49 68.671L42.1845 68.9366L52.6669 99.3772L48.3895 103.095L19.6621 88.4303L19.3566 88.6959L39.0663 111.369L33.3416 116.346L4.71361 83.4129ZM43.4997 49.6967L50.2374 43.8397L70.9582 51.4054L71.2799 51.1258L66.6716 29.5537L73.4093 23.6967L79.3778 54.758L90.0574 67.0435L84.1076 72.2155L73.4281 59.93L43.4997 49.6967Z"/>
</mask>
<path class="MY-text" d="M4.71361 83.4129L12.0141 77.0667L42.5352 92.4311L42.9211 92.0957L31.9539 59.7333L39.2544 53.3871L67.8825 86.3198L62.1578 91.2962L42.49 68.671L42.1845 68.9366L52.6669 99.3772L48.3895 103.095L19.6621 88.4303L19.3566 88.6959L39.0663 111.369L33.3416 116.346L4.71361 83.4129ZM43.4997 49.6967L50.2374 43.8397L70.9582 51.4054L71.2799 51.1258L66.6716 29.5537L73.4093 23.6967L79.3778 54.758L90.0574 67.0435L84.1076 72.2155L73.4281 59.93L43.4997 49.6967Z" fill="#FFCB05"/>
<path class="MY-text" d="M4.71361 83.4129L2.74544 81.1488L0.481309 83.117L2.44949 85.3811L4.71361 83.4129ZM12.0141 77.0667L13.3631 74.3871L11.5651 73.482L10.046 74.8026L12.0141 77.0667ZM42.5352 92.4311L41.1863 95.1108L42.9842 96.0159L44.5034 94.6953L42.5352 92.4311ZM42.9211 92.0957L44.8893 94.3598L46.4085 93.0392L45.7624 91.1328L42.9211 92.0957ZM31.9539 59.7333L29.9857 57.4692L28.4666 58.7898L29.1126 60.6962L31.9539 59.7333ZM39.2544 53.3871L41.5186 51.4189L39.5504 49.1548L37.2863 51.1229L39.2544 53.3871ZM67.8825 86.3198L69.8506 88.584L72.1148 86.6158L70.1466 84.3517L67.8825 86.3198ZM62.1578 91.2962L59.8937 93.2644L61.8619 95.5285L64.126 93.5603L62.1578 91.2962ZM42.49 68.671L44.7542 66.7028L42.786 64.4387L40.5219 66.4069L42.49 68.671ZM42.1845 68.9366L40.2163 66.6725L38.6891 68L39.348 69.9134L42.1845 68.9366ZM52.6669 99.3772L54.6351 101.641L56.1623 100.314L55.5034 98.4004L52.6669 99.3772ZM48.3895 103.095L47.0255 105.767L48.8292 106.688L50.3577 105.36L48.3895 103.095ZM19.6621 88.4303L21.0261 85.7584L19.2223 84.8375L17.6939 86.1662L19.6621 88.4303ZM19.3566 88.6959L17.3884 86.4318L15.1243 88.4L17.0924 90.6641L19.3566 88.6959ZM39.0663 111.369L41.0345 113.633L43.2986 111.665L41.3304 109.401L39.0663 111.369ZM33.3416 116.346L31.0775 118.314L33.0457 120.578L35.3098 118.61L33.3416 116.346ZM4.71361 83.4129L6.68179 85.6771L13.9823 79.3308L12.0141 77.0667L10.046 74.8026L2.74544 81.1488L4.71361 83.4129ZM12.0141 77.0667L10.6652 79.7463L41.1863 95.1108L42.5352 92.4311L43.8841 89.7515L13.3631 74.3871L12.0141 77.0667ZM42.5352 92.4311L44.5034 94.6953L44.8893 94.3598L42.9211 92.0957L40.953 89.8315L40.567 90.167L42.5352 92.4311ZM42.9211 92.0957L45.7624 91.1328L34.7952 58.7704L31.9539 59.7333L29.1126 60.6962L40.0799 93.0585L42.9211 92.0957ZM31.9539 59.7333L33.9221 61.9974L41.2226 55.6512L39.2544 53.3871L37.2863 51.1229L29.9857 57.4692L31.9539 59.7333ZM39.2544 53.3871L36.9903 55.3552L65.6183 88.288L67.8825 86.3198L70.1466 84.3517L41.5186 51.4189L39.2544 53.3871ZM67.8825 86.3198L65.9143 84.0557L60.1896 89.0321L62.1578 91.2962L64.126 93.5603L69.8506 88.584L67.8825 86.3198ZM62.1578 91.2962L64.422 89.328L44.7542 66.7028L42.49 68.671L40.2259 70.6392L59.8937 93.2644L62.1578 91.2962ZM42.49 68.671L40.5219 66.4069L40.2163 66.6725L42.1845 68.9366L44.1527 71.2007L44.4582 70.9351L42.49 68.671ZM42.1845 68.9366L39.348 69.9134L49.8304 100.354L52.6669 99.3772L55.5034 98.4004L45.021 67.9598L42.1845 68.9366ZM52.6669 99.3772L50.6987 97.113L46.4213 100.831L48.3895 103.095L50.3577 105.36L54.6351 101.641L52.6669 99.3772ZM48.3895 103.095L49.7535 100.423L21.0261 85.7584L19.6621 88.4303L18.2981 91.1023L47.0255 105.767L48.3895 103.095ZM19.6621 88.4303L17.6939 86.1662L17.3884 86.4318L19.3566 88.6959L21.3247 90.96L21.6303 90.6945L19.6621 88.4303ZM19.3566 88.6959L17.0924 90.6641L36.8022 113.338L39.0663 111.369L41.3304 109.401L21.6207 86.7277L19.3566 88.6959ZM39.0663 111.369L37.0981 109.105L31.3735 114.082L33.3416 116.346L35.3098 118.61L41.0345 113.633L39.0663 111.369ZM33.3416 116.346L35.6058 114.378L6.97774 81.4448L4.71361 83.4129L2.44949 85.3811L31.0775 118.314L33.3416 116.346ZM43.4997 49.6967L41.5315 47.4326L37.6002 50.8501L42.5291 52.5354L43.4997 49.6967ZM50.2374 43.8397L51.2663 41.0217L49.6044 40.4149L48.2692 41.5756L50.2374 43.8397ZM70.9582 51.4054L69.9293 54.2234L71.5912 54.8302L72.9264 53.6695L70.9582 51.4054ZM71.2799 51.1258L73.248 53.3899L74.5833 52.2292L74.2137 50.4991L71.2799 51.1258ZM66.6716 29.5537L64.7034 27.2895L63.3682 28.4502L63.7378 30.1804L66.6716 29.5537ZM73.4093 23.6967L76.3554 23.1306L75.3725 18.0151L71.4412 21.4325L73.4093 23.6967ZM79.3778 54.758L76.4317 55.3241L76.5841 56.1169L77.1137 56.7262L79.3778 54.758ZM90.0574 67.0435L92.0256 69.3076L94.2897 67.3394L92.3215 65.0753L90.0574 67.0435ZM84.1076 72.2155L81.8435 74.1837L83.8117 76.4478L86.0758 74.4796L84.1076 72.2155ZM73.4281 59.93L75.6922 57.9619L75.1625 57.3526L74.3987 57.0914L73.4281 59.93ZM43.4997 49.6967L45.4679 51.9609L52.2056 46.1039L50.2374 43.8397L48.2692 41.5756L41.5315 47.4326L43.4997 49.6967ZM50.2374 43.8397L49.2085 46.6578L69.9293 54.2234L70.9582 51.4054L71.9872 48.5873L51.2663 41.0217L50.2374 43.8397ZM70.9582 51.4054L72.9264 53.6695L73.248 53.3899L71.2799 51.1258L69.3117 48.8617L68.9901 49.1413L70.9582 51.4054ZM71.2799 51.1258L74.2137 50.4991L69.6054 28.927L66.6716 29.5537L63.7378 30.1804L68.3461 51.7525L71.2799 51.1258ZM66.6716 29.5537L68.6398 31.8178L75.3775 25.9608L73.4093 23.6967L71.4412 21.4325L64.7034 27.2895L66.6716 29.5537ZM73.4093 23.6967L70.4632 24.2628L76.4317 55.3241L79.3778 54.758L82.3239 54.1919L76.3554 23.1306L73.4093 23.6967ZM79.3778 54.758L77.1137 56.7262L87.7933 69.0116L90.0574 67.0435L92.3215 65.0753L81.642 52.7898L79.3778 54.758ZM90.0574 67.0435L88.0892 64.7793L82.1395 69.9514L84.1076 72.2155L86.0758 74.4796L92.0256 69.3076L90.0574 67.0435ZM84.1076 72.2155L86.3718 70.2473L75.6922 57.9619L73.4281 59.93L71.1639 61.8982L81.8435 74.1837L84.1076 72.2155ZM73.4281 59.93L74.3987 57.0914L44.4703 46.8581L43.4997 49.6967L42.5291 52.5354L72.4574 62.7687L73.4281 59.93Z" fill="#3959A5" mask="url(#path-4-outside-1_0_1)"/>
<mask id="path-6-outside-2_0_1" maskUnits="userSpaceOnUse" x="90" y="94" width="122" height="36" fill="black">
<rect fill="white" x="90" y="94" width="122" height="36"/>
<path d="M91.2212 120V95.4932H97.9888C106.625 95.4932 110.943 99.4751 110.943 107.439C110.943 111.222 109.741 114.264 107.337 116.565C104.944 118.855 101.737 120 97.7153 120H91.2212ZM94.0923 98.0908V117.402H97.7495C100.962 117.402 103.463 116.542 105.252 114.822C107.041 113.101 107.935 110.663 107.935 107.507C107.935 101.23 104.597 98.0908 97.9204 98.0908H94.0923ZM126.863 120H124.06V117.266H123.992C122.773 119.362 120.978 120.41 118.609 120.41C116.866 120.41 115.498 119.949 114.507 119.026C113.527 118.103 113.037 116.878 113.037 115.352C113.037 112.082 114.963 110.179 118.814 109.644L124.06 108.909C124.06 105.935 122.858 104.448 120.454 104.448C118.347 104.448 116.444 105.166 114.746 106.602V103.73C116.467 102.637 118.449 102.09 120.694 102.09C124.807 102.09 126.863 104.266 126.863 108.618V120ZM124.06 111.147L119.839 111.729C118.54 111.911 117.561 112.236 116.9 112.703C116.239 113.158 115.908 113.973 115.908 115.146C115.908 116.001 116.21 116.702 116.814 117.249C117.429 117.784 118.244 118.052 119.258 118.052C120.648 118.052 121.793 117.568 122.693 116.599C123.605 115.619 124.06 114.383 124.06 112.891V111.147ZM155.942 120H153.14V109.951C153.14 108.014 152.838 106.613 152.234 105.747C151.642 104.881 150.639 104.448 149.226 104.448C148.03 104.448 147.01 104.995 146.167 106.089C145.335 107.183 144.92 108.493 144.92 110.02V120H142.117V109.609C142.117 106.169 140.789 104.448 138.135 104.448C136.904 104.448 135.89 104.967 135.093 106.003C134.295 107.029 133.897 108.368 133.897 110.02V120H131.094V102.5H133.897V105.269H133.965C135.207 103.149 137.018 102.09 139.4 102.09C140.596 102.09 141.638 102.426 142.527 103.098C143.416 103.759 144.025 104.631 144.356 105.713C145.654 103.298 147.591 102.09 150.166 102.09C154.017 102.09 155.942 104.465 155.942 109.216V120ZM172.717 120H169.914V117.266H169.846C168.627 119.362 166.833 120.41 164.463 120.41C162.72 120.41 161.352 119.949 160.361 119.026C159.381 118.103 158.892 116.878 158.892 115.352C158.892 112.082 160.817 110.179 164.668 109.644L169.914 108.909C169.914 105.935 168.712 104.448 166.308 104.448C164.201 104.448 162.298 105.166 160.6 106.602V103.73C162.321 102.637 164.303 102.09 166.548 102.09C170.661 102.09 172.717 104.266 172.717 108.618V120ZM169.914 111.147L165.693 111.729C164.394 111.911 163.415 112.236 162.754 112.703C162.093 113.158 161.763 113.973 161.763 115.146C161.763 116.001 162.065 116.702 162.668 117.249C163.284 117.784 164.098 118.052 165.112 118.052C166.502 118.052 167.647 117.568 168.547 116.599C169.459 115.619 169.914 114.383 169.914 112.891V111.147ZM191.884 118.599C191.884 125.024 188.808 128.237 182.656 128.237C180.491 128.237 178.6 127.827 176.982 127.007V124.204C178.953 125.298 180.833 125.845 182.622 125.845C186.928 125.845 189.082 123.555 189.082 118.975V117.061H189.013C187.68 119.294 185.675 120.41 182.998 120.41C180.822 120.41 179.067 119.635 177.734 118.086C176.412 116.525 175.752 114.434 175.752 111.814C175.752 108.84 176.464 106.476 177.888 104.722C179.323 102.967 181.283 102.09 183.767 102.09C186.125 102.09 187.874 103.035 189.013 104.927H189.082V102.5H191.884V118.599ZM189.082 112.087V109.507C189.082 108.117 188.609 106.926 187.663 105.935C186.729 104.944 185.561 104.448 184.16 104.448C182.428 104.448 181.072 105.081 180.092 106.345C179.113 107.598 178.623 109.359 178.623 111.626C178.623 113.574 179.09 115.135 180.024 116.309C180.97 117.471 182.217 118.052 183.767 118.052C185.339 118.052 186.615 117.493 187.595 116.377C188.586 115.26 189.082 113.831 189.082 112.087ZM210.573 111.951H198.217C198.263 113.899 198.787 115.403 199.79 116.462C200.792 117.522 202.171 118.052 203.925 118.052C205.896 118.052 207.708 117.402 209.36 116.104V118.735C207.822 119.852 205.788 120.41 203.259 120.41C200.786 120.41 198.844 119.618 197.431 118.035C196.018 116.44 195.312 114.201 195.312 111.318C195.312 108.595 196.081 106.379 197.619 104.67C199.169 102.95 201.088 102.09 203.378 102.09C205.668 102.09 207.44 102.83 208.693 104.312C209.947 105.793 210.573 107.849 210.573 110.481V111.951ZM207.702 109.575C207.691 107.957 207.298 106.698 206.523 105.798C205.76 104.898 204.694 104.448 203.327 104.448C202.006 104.448 200.883 104.921 199.96 105.867C199.038 106.812 198.468 108.049 198.251 109.575H207.702Z"/>
</mask>
<path class="top-text" d="M91.2212 120V95.4932H97.9888C106.625 95.4932 110.943 99.4751 110.943 107.439C110.943 111.222 109.741 114.264 107.337 116.565C104.944 118.855 101.737 120 97.7153 120H91.2212ZM94.0923 98.0908V117.402H97.7495C100.962 117.402 103.463 116.542 105.252 114.822C107.041 113.101 107.935 110.663 107.935 107.507C107.935 101.23 104.597 98.0908 97.9204 98.0908H94.0923ZM126.863 120H124.06V117.266H123.992C122.773 119.362 120.978 120.41 118.609 120.41C116.866 120.41 115.498 119.949 114.507 119.026C113.527 118.103 113.037 116.878 113.037 115.352C113.037 112.082 114.963 110.179 118.814 109.644L124.06 108.909C124.06 105.935 122.858 104.448 120.454 104.448C118.347 104.448 116.444 105.166 114.746 106.602V103.73C116.467 102.637 118.449 102.09 120.694 102.09C124.807 102.09 126.863 104.266 126.863 108.618V120ZM124.06 111.147L119.839 111.729C118.54 111.911 117.561 112.236 116.9 112.703C116.239 113.158 115.908 113.973 115.908 115.146C115.908 116.001 116.21 116.702 116.814 117.249C117.429 117.784 118.244 118.052 119.258 118.052C120.648 118.052 121.793 117.568 122.693 116.599C123.605 115.619 124.06 114.383 124.06 112.891V111.147ZM155.942 120H153.14V109.951C153.14 108.014 152.838 106.613 152.234 105.747C151.642 104.881 150.639 104.448 149.226 104.448C148.03 104.448 147.01 104.995 146.167 106.089C145.335 107.183 144.92 108.493 144.92 110.02V120H142.117V109.609C142.117 106.169 140.789 104.448 138.135 104.448C136.904 104.448 135.89 104.967 135.093 106.003C134.295 107.029 133.897 108.368 133.897 110.02V120H131.094V102.5H133.897V105.269H133.965C135.207 103.149 137.018 102.09 139.4 102.09C140.596 102.09 141.638 102.426 142.527 103.098C143.416 103.759 144.025 104.631 144.356 105.713C145.654 103.298 147.591 102.09 150.166 102.09C154.017 102.09 155.942 104.465 155.942 109.216V120ZM172.717 120H169.914V117.266H169.846C168.627 119.362 166.833 120.41 164.463 120.41C162.72 120.41 161.352 119.949 160.361 119.026C159.381 118.103 158.892 116.878 158.892 115.352C158.892 112.082 160.817 110.179 164.668 109.644L169.914 108.909C169.914 105.935 168.712 104.448 166.308 104.448C164.201 104.448 162.298 105.166 160.6 106.602V103.73C162.321 102.637 164.303 102.09 166.548 102.09C170.661 102.09 172.717 104.266 172.717 108.618V120ZM169.914 111.147L165.693 111.729C164.394 111.911 163.415 112.236 162.754 112.703C162.093 113.158 161.763 113.973 161.763 115.146C161.763 116.001 162.065 116.702 162.668 117.249C163.284 117.784 164.098 118.052 165.112 118.052C166.502 118.052 167.647 117.568 168.547 116.599C169.459 115.619 169.914 114.383 169.914 112.891V111.147ZM191.884 118.599C191.884 125.024 188.808 128.237 182.656 128.237C180.491 128.237 178.6 127.827 176.982 127.007V124.204C178.953 125.298 180.833 125.845 182.622 125.845C186.928 125.845 189.082 123.555 189.082 118.975V117.061H189.013C187.68 119.294 185.675 120.41 182.998 120.41C180.822 120.41 179.067 119.635 177.734 118.086C176.412 116.525 175.752 114.434 175.752 111.814C175.752 108.84 176.464 106.476 177.888 104.722C179.323 102.967 181.283 102.09 183.767 102.09C186.125 102.09 187.874 103.035 189.013 104.927H189.082V102.5H191.884V118.599ZM189.082 112.087V109.507C189.082 108.117 188.609 106.926 187.663 105.935C186.729 104.944 185.561 104.448 184.16 104.448C182.428 104.448 181.072 105.081 180.092 106.345C179.113 107.598 178.623 109.359 178.623 111.626C178.623 113.574 179.09 115.135 180.024 116.309C180.97 117.471 182.217 118.052 183.767 118.052C185.339 118.052 186.615 117.493 187.595 116.377C188.586 115.26 189.082 113.831 189.082 112.087ZM210.573 111.951H198.217C198.263 113.899 198.787 115.403 199.79 116.462C200.792 117.522 202.171 118.052 203.925 118.052C205.896 118.052 207.708 117.402 209.36 116.104V118.735C207.822 119.852 205.788 120.41 203.259 120.41C200.786 120.41 198.844 119.618 197.431 118.035C196.018 116.44 195.312 114.201 195.312 111.318C195.312 108.595 196.081 106.379 197.619 104.67C199.169 102.95 201.088 102.09 203.378 102.09C205.668 102.09 207.44 102.83 208.693 104.312C209.947 105.793 210.573 107.849 210.573 110.481V111.951ZM207.702 109.575C207.691 107.957 207.298 106.698 206.523 105.798C205.76 104.898 204.694 104.448 203.327 104.448C202.006 104.448 200.883 104.921 199.96 105.867C199.038 106.812 198.468 108.049 198.251 109.575H207.702Z" fill="white"/>
<path class="top-text" d="M91.2212 120H90.2212V121H91.2212V120ZM91.2212 95.4932V94.4932H90.2212V95.4932H91.2212ZM107.337 116.565L108.028 117.287L108.028 117.287L107.337 116.565ZM94.0923 98.0908V97.0908H93.0923V98.0908H94.0923ZM94.0923 117.402H93.0923V118.402H94.0923V117.402ZM105.252 114.822L104.559 114.101L105.252 114.822ZM91.2212 120H92.2212V95.4932H91.2212H90.2212V120H91.2212ZM91.2212 95.4932V96.4932H97.9888V95.4932V94.4932H91.2212V95.4932ZM97.9888 95.4932V96.4932C102.172 96.4932 105.123 97.4592 107.026 99.2148C108.915 100.956 109.943 103.633 109.943 107.439H110.943H111.943C111.943 103.281 110.812 99.985 108.382 97.7445C105.968 95.5181 102.442 94.4932 97.9888 94.4932V95.4932ZM110.943 107.439H109.943C109.943 110.99 108.825 113.756 106.645 115.843L107.337 116.565L108.028 117.287C110.657 114.771 111.943 111.453 111.943 107.439H110.943ZM107.337 116.565L106.645 115.843C104.477 117.918 101.538 119 97.7153 119V120V121C101.936 121 105.411 119.792 108.028 117.287L107.337 116.565ZM97.7153 120V119H91.2212V120V121H97.7153V120ZM94.0923 98.0908H93.0923V117.402H94.0923H95.0923V98.0908H94.0923ZM94.0923 117.402V118.402H97.7495V117.402V116.402H94.0923V117.402ZM97.7495 117.402V118.402C101.142 118.402 103.92 117.49 105.945 115.543L105.252 114.822L104.559 114.101C103.006 115.594 100.783 116.402 97.7495 116.402V117.402ZM105.252 114.822L105.945 115.543C107.98 113.586 108.935 110.857 108.935 107.507H107.935H106.935C106.935 110.469 106.102 112.617 104.559 114.101L105.252 114.822ZM107.935 107.507H108.935C108.935 104.198 108.052 101.537 106.116 99.7164C104.192 97.9071 101.398 97.0908 97.9204 97.0908V98.0908V99.0908C101.119 99.0908 103.332 99.844 104.746 101.173C106.149 102.492 106.935 104.539 106.935 107.507H107.935ZM97.9204 98.0908V97.0908H94.0923V98.0908V99.0908H97.9204V98.0908ZM126.863 120V121H127.863V120H126.863ZM124.06 120H123.06V121H124.06V120ZM124.06 117.266H125.06V116.266H124.06V117.266ZM123.992 117.266V116.266H123.417L123.128 116.763L123.992 117.266ZM114.507 119.026L113.821 119.754L113.826 119.758L114.507 119.026ZM118.814 109.644L118.951 110.634L118.952 110.634L118.814 109.644ZM124.06 108.909L124.199 109.899L125.06 109.778V108.909H124.06ZM114.746 106.602H113.746V108.757L115.392 107.365L114.746 106.602ZM114.746 103.73L114.21 102.887L113.746 103.181V103.73H114.746ZM124.06 111.147H125.06V110L123.924 110.157L124.06 111.147ZM119.839 111.729L119.703 110.738L119.7 110.738L119.839 111.729ZM116.9 112.703L117.467 113.526L117.477 113.519L116.9 112.703ZM116.814 117.249L116.143 117.99L116.15 117.996L116.158 118.003L116.814 117.249ZM122.693 116.599L121.961 115.918L121.961 115.918L122.693 116.599ZM126.863 120V119H124.06V120V121H126.863V120ZM124.06 120H125.06V117.266H124.06H123.06V120H124.06ZM124.06 117.266V116.266H123.992V117.266V118.266H124.06V117.266ZM123.992 117.266L123.128 116.763C122.082 118.56 120.612 119.41 118.609 119.41V120.41V121.41C121.345 121.41 123.463 120.164 124.856 117.768L123.992 117.266ZM118.609 120.41V119.41C117.043 119.41 115.946 118.999 115.189 118.294L114.507 119.026L113.826 119.758C115.05 120.898 116.688 121.41 118.609 121.41V120.41ZM114.507 119.026L115.193 118.298C114.441 117.59 114.037 116.643 114.037 115.352H113.037H112.037C112.037 117.113 112.613 118.616 113.822 119.754L114.507 119.026ZM113.037 115.352H114.037C114.037 113.924 114.45 112.909 115.184 112.183C115.94 111.437 117.15 110.885 118.951 110.634L118.814 109.644L118.676 108.653C116.627 108.938 114.949 109.605 113.779 110.761C112.587 111.938 112.037 113.509 112.037 115.352H113.037ZM118.814 109.644L118.952 110.634L124.199 109.899L124.06 108.909L123.922 107.918L118.675 108.653L118.814 109.644ZM124.06 108.909H125.06C125.06 107.313 124.742 105.931 123.937 104.935C123.098 103.898 121.873 103.448 120.454 103.448V104.448V105.448C121.439 105.448 122.018 105.742 122.381 106.192C122.778 106.682 123.06 107.531 123.06 108.909H124.06ZM120.454 104.448V103.448C118.097 103.448 115.968 104.259 114.101 105.838L114.746 106.602L115.392 107.365C116.92 106.073 118.597 105.448 120.454 105.448V104.448ZM114.746 106.602H115.746V103.73H114.746H113.746V106.602H114.746ZM114.746 103.73L115.283 104.574C116.827 103.593 118.619 103.09 120.694 103.09V102.09V101.09C118.279 101.09 116.107 101.681 114.21 102.887L114.746 103.73ZM120.694 102.09V103.09C122.581 103.09 123.817 103.586 124.594 104.409C125.381 105.242 125.863 106.583 125.863 108.618H126.863H127.863C127.863 106.302 127.317 104.378 126.048 103.035C124.768 101.681 122.919 101.09 120.694 101.09V102.09ZM126.863 108.618H125.863V120H126.863H127.863V108.618H126.863ZM124.06 111.147L123.924 110.157L119.703 110.738L119.839 111.729L119.976 112.719L124.197 112.138L124.06 111.147ZM119.839 111.729L119.7 110.738C118.331 110.93 117.17 111.287 116.322 111.886L116.9 112.703L117.477 113.519C117.951 113.184 118.75 112.891 119.978 112.719L119.839 111.729ZM116.9 112.703L116.332 111.879C115.29 112.598 114.908 113.806 114.908 115.146H115.908H116.908C116.908 114.14 117.187 113.719 117.467 113.526L116.9 112.703ZM115.908 115.146H114.908C114.908 116.268 115.319 117.243 116.143 117.99L116.814 117.249L117.486 116.507C117.102 116.16 116.908 115.734 116.908 115.146H115.908ZM116.814 117.249L116.158 118.003C116.996 118.733 118.064 119.052 119.258 119.052V118.052V117.052C118.425 117.052 117.863 116.835 117.471 116.494L116.814 117.249ZM119.258 118.052V119.052C120.91 119.052 122.326 118.463 123.426 117.28L122.693 116.599L121.961 115.918C121.26 116.672 120.386 117.052 119.258 117.052V118.052ZM122.693 116.599L123.425 117.28C124.529 116.094 125.06 114.604 125.06 112.891H124.06H123.06C123.06 114.162 122.68 115.145 121.961 115.918L122.693 116.599ZM124.06 112.891H125.06V111.147H124.06H123.06V112.891H124.06ZM155.942 120V121H156.942V120H155.942ZM153.14 120H152.14V121H153.14V120ZM152.234 105.747L151.409 106.312L151.414 106.319L152.234 105.747ZM146.167 106.089L145.375 105.478L145.371 105.484L146.167 106.089ZM144.92 120V121H145.92V120H144.92ZM142.117 120H141.117V121H142.117V120ZM135.093 106.003L135.882 106.617L135.885 106.613L135.093 106.003ZM133.897 120V121H134.897V120H133.897ZM131.094 120H130.094V121H131.094V120ZM131.094 102.5V101.5H130.094V102.5H131.094ZM133.897 102.5H134.897V101.5H133.897V102.5ZM133.897 105.269H132.897V106.269H133.897V105.269ZM133.965 105.269V106.269H134.538L134.828 105.774L133.965 105.269ZM142.527 103.098L141.924 103.896L141.93 103.901L142.527 103.098ZM144.356 105.713L143.399 106.005L144.1 108.3L145.236 106.186L144.356 105.713ZM155.942 120V119H153.14V120V121H155.942V120ZM153.14 120H154.14V109.951H153.14H152.14V120H153.14ZM153.14 109.951H154.14C154.14 107.957 153.838 106.299 153.054 105.175L152.234 105.747L151.414 106.319C151.838 106.927 152.14 108.071 152.14 109.951H153.14ZM152.234 105.747L153.059 105.182C152.219 103.955 150.843 103.448 149.226 103.448V104.448V105.448C150.435 105.448 151.064 105.808 151.409 106.312L152.234 105.747ZM149.226 104.448V103.448C147.669 103.448 146.374 104.182 145.375 105.478L146.167 106.089L146.959 106.699C147.646 105.808 148.39 105.448 149.226 105.448V104.448ZM146.167 106.089L145.371 105.484C144.392 106.771 143.92 108.3 143.92 110.02H144.92H145.92C145.92 108.686 146.278 107.595 146.963 106.694L146.167 106.089ZM144.92 110.02H143.92V120H144.92H145.92V110.02H144.92ZM144.92 120V119H142.117V120V121H144.92V120ZM142.117 120H143.117V109.609H142.117H141.117V120H142.117ZM142.117 109.609H143.117C143.117 107.788 142.77 106.239 141.913 105.128C141.018 103.967 139.696 103.448 138.135 103.448V104.448V105.448C139.229 105.448 139.897 105.789 140.33 106.349C140.8 106.959 141.117 107.99 141.117 109.609H142.117ZM138.135 104.448V103.448C136.572 103.448 135.273 104.129 134.3 105.394L135.093 106.003L135.885 106.613C136.508 105.804 137.237 105.448 138.135 105.448V104.448ZM135.093 106.003L134.304 105.389C133.336 106.633 132.897 108.206 132.897 110.02H133.897H134.897C134.897 108.529 135.255 107.424 135.882 106.617L135.093 106.003ZM133.897 110.02H132.897V120H133.897H134.897V110.02H133.897ZM133.897 120V119H131.094V120V121H133.897V120ZM131.094 120H132.094V102.5H131.094H130.094V120H131.094ZM131.094 102.5V103.5H133.897V102.5V101.5H131.094V102.5ZM133.897 102.5H132.897V105.269H133.897H134.897V102.5H133.897ZM133.897 105.269V106.269H133.965V105.269V104.269H133.897V105.269ZM133.965 105.269L134.828 105.774C135.897 103.949 137.387 103.09 139.4 103.09V102.09V101.09C136.65 101.09 134.517 102.349 133.102 104.763L133.965 105.269ZM139.4 102.09V103.09C140.395 103.09 141.222 103.365 141.924 103.896L142.527 103.098L143.13 102.301C142.055 101.487 140.797 101.09 139.4 101.09V102.09ZM142.527 103.098L141.93 103.901C142.644 104.431 143.13 105.122 143.399 106.005L144.356 105.713L145.312 105.421C144.921 104.139 144.188 103.087 143.124 102.296L142.527 103.098ZM144.356 105.713L145.236 106.186C145.82 105.101 146.518 104.339 147.311 103.844C148.101 103.352 149.041 103.09 150.166 103.09V102.09V101.09C148.716 101.09 147.4 101.432 146.253 102.147C145.11 102.86 144.19 103.909 143.475 105.239L144.356 105.713ZM150.166 102.09V103.09C151.875 103.09 152.997 103.607 153.722 104.501C154.479 105.436 154.942 106.95 154.942 109.216H155.942H156.942C156.942 106.732 156.443 104.683 155.275 103.242C154.075 101.761 152.308 101.09 150.166 101.09V102.09ZM155.942 109.216H154.942V120H155.942H156.942V109.216H155.942ZM172.717 120V121H173.717V120H172.717ZM169.914 120H168.914V121H169.914V120ZM169.914 117.266H170.914V116.266H169.914V117.266ZM169.846 117.266V116.266H169.271L168.982 116.763L169.846 117.266ZM160.361 119.026L159.676 119.754L159.68 119.758L160.361 119.026ZM164.668 109.644L164.806 110.634L164.807 110.634L164.668 109.644ZM169.914 108.909L170.053 109.899L170.914 109.778V108.909H169.914ZM160.6 106.602H159.6V108.757L161.246 107.365L160.6 106.602ZM160.6 103.73L160.064 102.887L159.6 103.181V103.73H160.6ZM169.914 111.147H170.914V110L169.778 110.157L169.914 111.147ZM165.693 111.729L165.557 110.738L165.554 110.738L165.693 111.729ZM162.754 112.703L163.322 113.526L163.331 113.519L162.754 112.703ZM162.668 117.249L161.997 117.99L162.004 117.996L162.012 118.003L162.668 117.249ZM168.547 116.599L167.815 115.918L167.815 115.918L168.547 116.599ZM172.717 120V119H169.914V120V121H172.717V120ZM169.914 120H170.914V117.266H169.914H168.914V120H169.914ZM169.914 117.266V116.266H169.846V117.266V118.266H169.914V117.266ZM169.846 117.266L168.982 116.763C167.936 118.56 166.466 119.41 164.463 119.41V120.41V121.41C167.199 121.41 169.318 120.164 170.711 117.768L169.846 117.266ZM164.463 120.41V119.41C162.897 119.41 161.8 118.999 161.043 118.294L160.361 119.026L159.68 119.758C160.905 120.898 162.542 121.41 164.463 121.41V120.41ZM160.361 119.026L161.047 118.298C160.295 117.59 159.892 116.643 159.892 115.352H158.892H157.892C157.892 117.113 158.467 118.616 159.676 119.754L160.361 119.026ZM158.892 115.352H159.892C159.892 113.924 160.304 112.909 161.038 112.183C161.794 111.437 163.004 110.885 164.806 110.634L164.668 109.644L164.53 108.653C162.481 108.938 160.803 109.605 159.633 110.761C158.441 111.938 157.892 113.509 157.892 115.352H158.892ZM164.668 109.644L164.807 110.634L170.053 109.899L169.914 108.909L169.776 107.918L164.529 108.653L164.668 109.644ZM169.914 108.909H170.914C170.914 107.313 170.596 105.931 169.791 104.935C168.952 103.898 167.728 103.448 166.308 103.448V104.448V105.448C167.293 105.448 167.872 105.742 168.235 106.192C168.632 106.682 168.914 107.531 168.914 108.909H169.914ZM166.308 104.448V103.448C163.951 103.448 161.822 104.259 159.955 105.838L160.6 106.602L161.246 107.365C162.774 106.073 164.451 105.448 166.308 105.448V104.448ZM160.6 106.602H161.6V103.73H160.6H159.6V106.602H160.6ZM160.6 103.73L161.137 104.574C162.681 103.593 164.473 103.09 166.548 103.09V102.09V101.09C164.133 101.09 161.961 101.681 160.064 102.887L160.6 103.73ZM166.548 102.09V103.09C168.435 103.09 169.671 103.586 170.448 104.409C171.235 105.242 171.717 106.583 171.717 108.618H172.717H173.717C173.717 106.302 173.171 104.378 171.902 103.035C170.622 101.681 168.773 101.09 166.548 101.09V102.09ZM172.717 108.618H171.717V120H172.717H173.717V108.618H172.717ZM169.914 111.147L169.778 110.157L165.557 110.738L165.693 111.729L165.83 112.719L170.051 112.138L169.914 111.147ZM165.693 111.729L165.554 110.738C164.185 110.93 163.024 111.287 162.177 111.886L162.754 112.703L163.331 113.519C163.805 113.184 164.604 112.891 165.832 112.719L165.693 111.729ZM162.754 112.703L162.186 111.879C161.144 112.598 160.763 113.806 160.763 115.146H161.763H162.763C162.763 114.14 163.042 113.719 163.322 113.526L162.754 112.703ZM161.763 115.146H160.763C160.763 116.268 161.173 117.243 161.997 117.99L162.668 117.249L163.34 116.507C162.956 116.16 162.763 115.734 162.763 115.146H161.763ZM162.668 117.249L162.012 118.003C162.85 118.733 163.918 119.052 165.112 119.052V118.052V117.052C164.279 117.052 163.717 116.835 163.325 116.494L162.668 117.249ZM165.112 118.052V119.052C166.764 119.052 168.18 118.463 169.28 117.28L168.547 116.599L167.815 115.918C167.115 116.672 166.24 117.052 165.112 117.052V118.052ZM168.547 116.599L169.279 117.28C170.383 116.094 170.914 114.604 170.914 112.891H169.914H168.914C168.914 114.162 168.534 115.145 167.815 115.918L168.547 116.599ZM169.914 112.891H170.914V111.147H169.914H168.914V112.891H169.914ZM176.982 127.007H175.982V127.621L176.53 127.899L176.982 127.007ZM176.982 124.204L177.467 123.33L175.982 122.506V124.204H176.982ZM189.082 117.061H190.082V116.061H189.082V117.061ZM189.013 117.061V116.061H188.446L188.155 116.548L189.013 117.061ZM177.734 118.086L176.971 118.732L176.976 118.738L177.734 118.086ZM177.888 104.722L177.114 104.088L177.111 104.091L177.888 104.722ZM189.013 104.927L188.157 105.443L188.448 105.927H189.013V104.927ZM189.082 104.927V105.927H190.082V104.927H189.082ZM189.082 102.5V101.5H188.082V102.5H189.082ZM191.884 102.5H192.884V101.5H191.884V102.5ZM187.663 105.935L186.936 106.621L186.94 106.625L187.663 105.935ZM180.092 106.345L180.88 106.961L180.883 106.958L180.092 106.345ZM180.024 116.309L179.242 116.931L179.248 116.94L180.024 116.309ZM187.595 116.377L186.847 115.713L186.843 115.717L187.595 116.377ZM191.884 118.599H190.884C190.884 121.668 190.149 123.784 188.855 125.136C187.569 126.48 185.567 127.237 182.656 127.237V128.237V129.237C185.898 129.237 188.51 128.389 190.3 126.519C192.082 124.658 192.884 121.955 192.884 118.599H191.884ZM182.656 128.237V127.237C180.618 127.237 178.887 126.852 177.434 126.115L176.982 127.007L176.53 127.899C178.313 128.803 180.364 129.237 182.656 129.237V128.237ZM176.982 127.007H177.982V124.204H176.982H175.982V127.007H176.982ZM176.982 124.204L176.497 125.078C178.578 126.234 180.625 126.845 182.622 126.845V125.845V124.845C181.041 124.845 179.328 124.362 177.467 123.33L176.982 124.204ZM182.622 125.845V126.845C184.946 126.845 186.868 126.224 188.195 124.812C189.512 123.412 190.082 121.404 190.082 118.975H189.082H188.082C188.082 121.125 187.575 122.552 186.738 123.442C185.912 124.32 184.605 124.845 182.622 124.845V125.845ZM189.082 118.975H190.082V117.061H189.082H188.082V118.975H189.082ZM189.082 117.061V116.061H189.013V117.061V118.061H189.082V117.061ZM189.013 117.061L188.155 116.548C187.009 118.468 185.336 119.41 182.998 119.41V120.41V121.41C186.014 121.41 188.352 120.119 189.872 117.573L189.013 117.061ZM182.998 120.41V119.41C181.092 119.41 179.622 118.747 178.492 117.434L177.734 118.086L176.976 118.738C178.513 120.524 180.552 121.41 182.998 121.41V120.41ZM177.734 118.086L178.497 117.44C177.367 116.105 176.752 114.266 176.752 111.814H175.752H174.752C174.752 114.603 175.458 116.945 176.971 118.732L177.734 118.086ZM175.752 111.814H176.752C176.752 108.997 177.425 106.879 178.664 105.352L177.888 104.722L177.111 104.091C175.503 106.074 174.752 108.684 174.752 111.814H175.752ZM177.888 104.722L178.662 105.355C179.888 103.857 181.55 103.09 183.767 103.09V102.09V101.09C181.016 101.09 178.759 102.078 177.114 104.088L177.888 104.722ZM183.767 102.09V103.09C185.804 103.09 187.213 103.876 188.157 105.443L189.013 104.927L189.87 104.411C188.535 102.195 186.447 101.09 183.767 101.09V102.09ZM189.013 104.927V105.927H189.082V104.927V103.927H189.013V104.927ZM189.082 104.927H190.082V102.5H189.082H188.082V104.927H189.082ZM189.082 102.5V103.5H191.884V102.5V101.5H189.082V102.5ZM191.884 102.5H190.884V118.599H191.884H192.884V102.5H191.884ZM189.082 112.087H190.082V109.507H189.082H188.082V112.087H189.082ZM189.082 109.507H190.082C190.082 107.864 189.513 106.425 188.387 105.245L187.663 105.935L186.94 106.625C187.705 107.428 188.082 108.37 188.082 109.507H189.082ZM187.663 105.935L188.391 105.249C187.262 104.051 185.828 103.448 184.16 103.448V104.448V105.448C185.295 105.448 186.196 105.837 186.936 106.621L187.663 105.935ZM184.16 104.448V103.448C182.148 103.448 180.489 104.201 179.302 105.733L180.092 106.345L180.883 106.958C181.656 105.96 182.708 105.448 184.16 105.448V104.448ZM180.092 106.345L179.305 105.729C178.14 107.22 177.623 109.228 177.623 111.626H178.623H179.623C179.623 109.489 180.086 107.977 180.88 106.961L180.092 106.345ZM178.623 111.626H177.623C177.623 113.732 178.129 115.534 179.242 116.931L180.024 116.309L180.806 115.686C180.05 114.736 179.623 113.416 179.623 111.626H178.623ZM180.024 116.309L179.248 116.94C180.391 118.344 181.928 119.052 183.767 119.052V118.052V117.052C182.506 117.052 181.548 116.597 180.8 115.677L180.024 116.309ZM183.767 118.052V119.052C185.608 119.052 187.165 118.383 188.347 117.037L187.595 116.377L186.843 115.717C186.066 116.604 185.07 117.052 183.767 117.052V118.052ZM187.595 116.377L188.343 117.041C189.523 115.711 190.082 114.032 190.082 112.087H189.082H188.082C188.082 113.629 187.649 114.81 186.847 115.713L187.595 116.377ZM210.573 111.951V112.951H211.573V111.951H210.573ZM198.217 111.951V110.951H197.194L197.218 111.974L198.217 111.951ZM209.36 116.104H210.36V114.045L208.742 115.317L209.36 116.104ZM209.36 118.735L209.947 119.545L210.36 119.245V118.735H209.36ZM197.431 118.035L196.683 118.698L196.685 118.7L197.431 118.035ZM197.619 104.67L196.876 104.001L196.876 104.001L197.619 104.67ZM207.702 109.575V110.575H208.709L208.702 109.568L207.702 109.575ZM206.523 105.798L205.76 106.445L205.765 106.451L206.523 105.798ZM198.251 109.575L197.261 109.435L197.1 110.575H198.251V109.575ZM210.573 111.951V110.951H198.217V111.951V112.951H210.573V111.951ZM198.217 111.951L197.218 111.974C197.267 114.085 197.84 115.857 199.063 117.15L199.79 116.462L200.516 115.775C199.734 114.949 199.259 113.713 199.217 111.927L198.217 111.951ZM199.79 116.462L199.063 117.15C200.292 118.449 201.956 119.052 203.925 119.052V118.052V117.052C202.385 117.052 201.292 116.595 200.516 115.775L199.79 116.462ZM203.925 118.052V119.052C206.136 119.052 208.162 118.317 209.978 116.89L209.36 116.104L208.742 115.317C207.254 116.487 205.657 117.052 203.925 117.052V118.052ZM209.36 116.104H208.36V118.735H209.36H210.36V116.104H209.36ZM209.36 118.735L208.772 117.926C207.454 118.883 205.646 119.41 203.259 119.41V120.41V121.41C205.93 121.41 208.19 120.82 209.947 119.545L209.36 118.735ZM203.259 120.41V119.41C201.02 119.41 199.368 118.704 198.177 117.369L197.431 118.035L196.685 118.7C198.319 120.532 200.553 121.41 203.259 121.41V120.41ZM197.431 118.035L198.18 117.372C196.979 116.016 196.312 114.044 196.312 111.318H195.312H194.312C194.312 114.358 195.058 116.864 196.683 118.698L197.431 118.035ZM195.312 111.318H196.312C196.312 108.794 197.019 106.832 198.362 105.339L197.619 104.67L196.876 104.001C195.143 105.927 194.312 108.397 194.312 111.318H195.312ZM197.619 104.67L198.362 105.34C199.724 103.827 201.375 103.09 203.378 103.09V102.09V101.09C200.801 101.09 198.613 102.073 196.876 104.001L197.619 104.67ZM203.378 102.09V103.09C205.433 103.09 206.902 103.742 207.93 104.957L208.693 104.312L209.457 103.666C207.979 101.919 205.904 101.09 203.378 101.09V102.09ZM208.693 104.312L207.93 104.957C208.984 106.203 209.573 108.001 209.573 110.481H210.573H211.573C211.573 107.697 210.91 105.383 209.457 103.666L208.693 104.312ZM210.573 110.481H209.573V111.951H210.573H211.573V110.481H210.573ZM207.702 109.575L208.702 109.568C208.69 107.799 208.258 106.282 207.281 105.146L206.523 105.798L205.765 106.451C206.337 107.115 206.692 108.115 206.702 109.582L207.702 109.575ZM206.523 105.798L207.286 105.152C206.301 103.991 204.936 103.448 203.327 103.448V104.448V105.448C204.452 105.448 205.218 105.806 205.76 106.445L206.523 105.798ZM203.327 104.448V103.448C201.736 103.448 200.356 104.03 199.245 105.168L199.96 105.867L200.676 106.565C201.411 105.812 202.275 105.448 203.327 105.448V104.448ZM199.96 105.867L199.245 105.168C198.15 106.29 197.503 107.734 197.261 109.435L198.251 109.575L199.242 109.716C199.433 108.363 199.925 107.334 200.676 106.565L199.96 105.867ZM198.251 109.575V110.575H207.702V109.575V108.575H198.251V109.575Z" fill="black" mask="url(#path-6-outside-2_0_1)"/>
<mask id="path-8-outside-3_0_1" maskUnits="userSpaceOnUse" x="17" y="121" width="270" height="48" fill="black">
<rect fill="white" x="17" y="121" width="270" height="48"/>
<path class="bottom-text" d="M50.8496 165.242C47.6855 166.883 43.75 167.703 39.043 167.703C32.9492 167.703 28.0664 165.779 24.3945 161.932C20.7227 158.084 18.8867 153.035 18.8867 146.785C18.8867 140.066 20.9473 134.637 25.0684 130.496C29.209 126.355 34.4336 124.285 40.7422 124.285C44.8047 124.285 48.1738 124.861 50.8496 126.014V132.928C48.0176 131.248 44.8926 130.408 41.4746 130.408C36.9238 130.408 33.2324 131.863 30.4004 134.773C27.5879 137.684 26.1816 141.57 26.1816 146.434C26.1816 151.062 27.5 154.754 30.1367 157.508C32.7734 160.242 36.2402 161.609 40.5371 161.609C44.502 161.609 47.9395 160.672 50.8496 158.797V165.242ZM79.284 167H72.6922V162.312H72.575C70.5047 165.906 67.4676 167.703 63.4637 167.703C60.5145 167.703 58.2 166.902 56.5203 165.301C54.8602 163.699 54.0301 161.58 54.0301 158.943C54.0301 153.279 57.2918 149.979 63.8152 149.041L72.7215 147.781C72.7215 143.504 70.6902 141.365 66.6277 141.365C63.0535 141.365 59.8309 142.596 56.9598 145.057V139.109C60.1238 137.234 63.7762 136.297 67.9168 136.297C75.4949 136.297 79.284 140.027 79.284 147.488V167ZM72.7215 152.264L66.4227 153.143C64.4695 153.396 62.9949 153.875 61.9988 154.578C61.0223 155.262 60.534 156.473 60.534 158.211C60.534 159.48 60.9832 160.525 61.8816 161.346C62.7996 162.146 64.0203 162.547 65.5438 162.547C67.6141 162.547 69.323 161.824 70.6707 160.379C72.0379 158.914 72.7215 157.078 72.7215 154.871V152.264ZM92.6305 167H85.8043V122.586H92.6305V167ZM121.182 165.623C118.78 167.01 115.938 167.703 112.657 167.703C108.204 167.703 104.61 166.316 101.875 163.543C99.141 160.75 97.7738 157.137 97.7738 152.703C97.7738 147.762 99.2387 143.797 102.168 140.809C105.118 137.801 109.053 136.297 113.975 136.297C116.709 136.297 119.121 136.775 121.211 137.732V144.061C119.121 142.498 116.895 141.717 114.532 141.717C111.661 141.717 109.307 142.693 107.471 144.646C105.635 146.58 104.717 149.119 104.717 152.264C104.717 155.369 105.577 157.82 107.295 159.617C109.034 161.414 111.358 162.312 114.268 162.312C116.709 162.312 119.014 161.443 121.182 159.705V165.623ZM152.312 167H145.515V162.254H145.398C143.425 165.887 140.359 167.703 136.198 167.703C129.109 167.703 125.564 163.445 125.564 154.93V137H132.361V154.227C132.361 159.617 134.441 162.312 138.601 162.312C140.613 162.312 142.263 161.57 143.552 160.086C144.861 158.602 145.515 156.658 145.515 154.256V137H152.312V167ZM166.215 167H159.389V122.586H166.215V167ZM196.319 167H189.727V162.312H189.61C187.54 165.906 184.503 167.703 180.499 167.703C177.55 167.703 175.235 166.902 173.555 165.301C171.895 163.699 171.065 161.58 171.065 158.943C171.065 153.279 174.327 149.979 180.85 149.041L189.757 147.781C189.757 143.504 187.725 141.365 183.663 141.365C180.089 141.365 176.866 142.596 173.995 145.057V139.109C177.159 137.234 180.811 136.297 184.952 136.297C192.53 136.297 196.319 140.027 196.319 147.488V167ZM189.757 152.264L183.458 153.143C181.505 153.396 180.03 153.875 179.034 154.578C178.057 155.262 177.569 156.473 177.569 158.211C177.569 159.48 178.018 160.525 178.917 161.346C179.835 162.146 181.055 162.547 182.579 162.547C184.649 162.547 186.358 161.824 187.706 160.379C189.073 158.914 189.757 157.078 189.757 154.871V152.264ZM218.66 166.678C217.332 167.342 215.584 167.674 213.416 167.674C207.595 167.674 204.685 164.881 204.685 159.295V142.332H199.675V137H204.685V130.057L211.482 128.123V137H218.66V142.332H211.482V157.332C211.482 159.109 211.804 160.379 212.449 161.141C213.093 161.902 214.168 162.283 215.671 162.283C216.824 162.283 217.82 161.951 218.66 161.287V166.678ZM235.668 167.703C231.039 167.703 227.338 166.307 224.565 163.514C221.811 160.701 220.434 156.98 220.434 152.352C220.434 147.312 221.87 143.377 224.741 140.545C227.631 137.713 231.518 136.297 236.401 136.297C241.088 136.297 244.741 137.674 247.358 140.428C249.975 143.182 251.284 147 251.284 151.883C251.284 156.668 249.868 160.506 247.036 163.396C244.223 166.268 240.434 167.703 235.668 167.703ZM235.991 141.717C233.334 141.717 231.235 142.645 229.692 144.5C228.149 146.355 227.377 148.914 227.377 152.176C227.377 155.32 228.159 157.801 229.721 159.617C231.284 161.414 233.373 162.312 235.991 162.312C238.666 162.312 240.717 161.424 242.143 159.646C243.588 157.869 244.311 155.34 244.311 152.059C244.311 148.758 243.588 146.209 242.143 144.412C240.717 142.615 238.666 141.717 235.991 141.717ZM273.829 143.475C273.009 142.83 271.827 142.508 270.284 142.508C268.273 142.508 266.593 143.416 265.245 145.232C263.898 147.049 263.224 149.52 263.224 152.645V167H256.427V137H263.224V143.182H263.341C264.005 141.072 265.021 139.432 266.388 138.26C267.775 137.068 269.318 136.473 271.017 136.473C272.247 136.473 273.185 136.658 273.829 137.029V143.475ZM284.773 124.988L284.217 154.637H278.65L277.889 124.988H284.773ZM281.521 167.586C280.35 167.586 279.354 167.215 278.533 166.473C277.713 165.711 277.303 164.793 277.303 163.719C277.303 162.605 277.713 161.658 278.533 160.877C279.354 160.096 280.35 159.705 281.521 159.705C282.654 159.705 283.631 160.096 284.451 160.877C285.291 161.658 285.711 162.605 285.711 163.719C285.711 164.793 285.291 165.711 284.451 166.473C283.631 167.215 282.654 167.586 281.521 167.586Z"/>
</mask>
<path class="bottom-text" d="M50.8496 165.242C47.6855 166.883 43.75 167.703 39.043 167.703C32.9492 167.703 28.0664 165.779 24.3945 161.932C20.7227 158.084 18.8867 153.035 18.8867 146.785C18.8867 140.066 20.9473 134.637 25.0684 130.496C29.209 126.355 34.4336 124.285 40.7422 124.285C44.8047 124.285 48.1738 124.861 50.8496 126.014V132.928C48.0176 131.248 44.8926 130.408 41.4746 130.408C36.9238 130.408 33.2324 131.863 30.4004 134.773C27.5879 137.684 26.1816 141.57 26.1816 146.434C26.1816 151.062 27.5 154.754 30.1367 157.508C32.7734 160.242 36.2402 161.609 40.5371 161.609C44.502 161.609 47.9395 160.672 50.8496 158.797V165.242ZM79.284 167H72.6922V162.312H72.575C70.5047 165.906 67.4676 167.703 63.4637 167.703C60.5145 167.703 58.2 166.902 56.5203 165.301C54.8602 163.699 54.0301 161.58 54.0301 158.943C54.0301 153.279 57.2918 149.979 63.8152 149.041L72.7215 147.781C72.7215 143.504 70.6902 141.365 66.6277 141.365C63.0535 141.365 59.8309 142.596 56.9598 145.057V139.109C60.1238 137.234 63.7762 136.297 67.9168 136.297C75.4949 136.297 79.284 140.027 79.284 147.488V167ZM72.7215 152.264L66.4227 153.143C64.4695 153.396 62.9949 153.875 61.9988 154.578C61.0223 155.262 60.534 156.473 60.534 158.211C60.534 159.48 60.9832 160.525 61.8816 161.346C62.7996 162.146 64.0203 162.547 65.5438 162.547C67.6141 162.547 69.323 161.824 70.6707 160.379C72.0379 158.914 72.7215 157.078 72.7215 154.871V152.264ZM92.6305 167H85.8043V122.586H92.6305V167ZM121.182 165.623C118.78 167.01 115.938 167.703 112.657 167.703C108.204 167.703 104.61 166.316 101.875 163.543C99.141 160.75 97.7738 157.137 97.7738 152.703C97.7738 147.762 99.2387 143.797 102.168 140.809C105.118 137.801 109.053 136.297 113.975 136.297C116.709 136.297 119.121 136.775 121.211 137.732V144.061C119.121 142.498 116.895 141.717 114.532 141.717C111.661 141.717 109.307 142.693 107.471 144.646C105.635 146.58 104.717 149.119 104.717 152.264C104.717 155.369 105.577 157.82 107.295 159.617C109.034 161.414 111.358 162.312 114.268 162.312C116.709 162.312 119.014 161.443 121.182 159.705V165.623ZM152.312 167H145.515V162.254H145.398C143.425 165.887 140.359 167.703 136.198 167.703C129.109 167.703 125.564 163.445 125.564 154.93V137H132.361V154.227C132.361 159.617 134.441 162.312 138.601 162.312C140.613 162.312 142.263 161.57 143.552 160.086C144.861 158.602 145.515 156.658 145.515 154.256V137H152.312V167ZM166.215 167H159.389V122.586H166.215V167ZM196.319 167H189.727V162.312H189.61C187.54 165.906 184.503 167.703 180.499 167.703C177.55 167.703 175.235 166.902 173.555 165.301C171.895 163.699 171.065 161.58 171.065 158.943C171.065 153.279 174.327 149.979 180.85 149.041L189.757 147.781C189.757 143.504 187.725 141.365 183.663 141.365C180.089 141.365 176.866 142.596 173.995 145.057V139.109C177.159 137.234 180.811 136.297 184.952 136.297C192.53 136.297 196.319 140.027 196.319 147.488V167ZM189.757 152.264L183.458 153.143C181.505 153.396 180.03 153.875 179.034 154.578C178.057 155.262 177.569 156.473 177.569 158.211C177.569 159.48 178.018 160.525 178.917 161.346C179.835 162.146 181.055 162.547 182.579 162.547C184.649 162.547 186.358 161.824 187.706 160.379C189.073 158.914 189.757 157.078 189.757 154.871V152.264ZM218.66 166.678C217.332 167.342 215.584 167.674 213.416 167.674C207.595 167.674 204.685 164.881 204.685 159.295V142.332H199.675V137H204.685V130.057L211.482 128.123V137H218.66V142.332H211.482V157.332C211.482 159.109 211.804 160.379 212.449 161.141C213.093 161.902 214.168 162.283 215.671 162.283C216.824 162.283 217.82 161.951 218.66 161.287V166.678ZM235.668 167.703C231.039 167.703 227.338 166.307 224.565 163.514C221.811 160.701 220.434 156.98 220.434 152.352C220.434 147.312 221.87 143.377 224.741 140.545C227.631 137.713 231.518 136.297 236.401 136.297C241.088 136.297 244.741 137.674 247.358 140.428C249.975 143.182 251.284 147 251.284 151.883C251.284 156.668 249.868 160.506 247.036 163.396C244.223 166.268 240.434 167.703 235.668 167.703ZM235.991 141.717C233.334 141.717 231.235 142.645 229.692 144.5C228.149 146.355 227.377 148.914 227.377 152.176C227.377 155.32 228.159 157.801 229.721 159.617C231.284 161.414 233.373 162.312 235.991 162.312C238.666 162.312 240.717 161.424 242.143 159.646C243.588 157.869 244.311 155.34 244.311 152.059C244.311 148.758 243.588 146.209 242.143 144.412C240.717 142.615 238.666 141.717 235.991 141.717ZM273.829 143.475C273.009 142.83 271.827 142.508 270.284 142.508C268.273 142.508 266.593 143.416 265.245 145.232C263.898 147.049 263.224 149.52 263.224 152.645V167H256.427V137H263.224V143.182H263.341C264.005 141.072 265.021 139.432 266.388 138.26C267.775 137.068 269.318 136.473 271.017 136.473C272.247 136.473 273.185 136.658 273.829 137.029V143.475ZM284.773 124.988L284.217 154.637H278.65L277.889 124.988H284.773ZM281.521 167.586C280.35 167.586 279.354 167.215 278.533 166.473C277.713 165.711 277.303 164.793 277.303 163.719C277.303 162.605 277.713 161.658 278.533 160.877C279.354 160.096 280.35 159.705 281.521 159.705C282.654 159.705 283.631 160.096 284.451 160.877C285.291 161.658 285.711 162.605 285.711 163.719C285.711 164.793 285.291 165.711 284.451 166.473C283.631 167.215 282.654 167.586 281.521 167.586Z" fill="white"/>
<path class="bottom-text" d="M50.8496 165.242L51.3099 166.13L51.8496 165.85V165.242H50.8496ZM24.3945 161.932L23.6711 162.622L24.3945 161.932ZM25.0684 130.496L24.3613 129.789L24.3596 129.791L25.0684 130.496ZM50.8496 126.014H51.8496V125.356L51.2451 125.095L50.8496 126.014ZM50.8496 132.928L50.3395 133.788L51.8496 134.683V132.928H50.8496ZM30.4004 134.773L29.6837 134.076L29.6813 134.078L30.4004 134.773ZM30.1367 157.508L29.4144 158.199L29.4169 158.202L30.1367 157.508ZM50.8496 158.797H51.8496V156.963L50.308 157.956L50.8496 158.797ZM50.8496 165.242L50.3893 164.354C47.4057 165.902 43.6392 166.703 39.043 166.703V167.703V168.703C43.8608 168.703 47.9654 167.864 51.3099 166.13L50.8496 165.242ZM39.043 167.703V166.703C33.179 166.703 28.573 164.862 25.118 161.241L24.3945 161.932L23.6711 162.622C27.5598 166.697 32.7195 168.703 39.043 168.703V167.703ZM24.3945 161.932L25.118 161.241C21.6543 157.612 19.8867 152.826 19.8867 146.785H18.8867H17.8867C17.8867 153.244 19.791 158.556 23.6711 162.622L24.3945 161.932ZM18.8867 146.785H19.8867C19.8867 140.288 21.8708 135.126 25.7771 131.202L25.0684 130.496L24.3596 129.791C20.0237 134.147 17.8867 139.845 17.8867 146.785H18.8867ZM25.0684 130.496L25.7755 131.203C29.7131 127.266 34.6761 125.285 40.7422 125.285V124.285V123.285C34.191 123.285 28.7049 125.445 24.3613 129.789L25.0684 130.496ZM40.7422 124.285V125.285C44.7187 125.285 47.9422 125.85 50.4541 126.932L50.8496 126.014L51.2451 125.095C48.4055 123.872 44.8907 123.285 40.7422 123.285V124.285ZM50.8496 126.014H49.8496V132.928H50.8496H51.8496V126.014H50.8496ZM50.8496 132.928L51.3597 132.068C48.3673 130.293 45.065 129.408 41.4746 129.408V130.408V131.408C44.7202 131.408 47.6679 132.203 50.3395 133.788L50.8496 132.928ZM41.4746 130.408V129.408C36.6896 129.408 32.7276 130.948 29.6837 134.076L30.4004 134.773L31.1171 135.471C33.7373 132.778 37.158 131.408 41.4746 131.408V130.408ZM30.4004 134.773L29.6813 134.078C26.6533 137.212 25.1816 141.367 25.1816 146.434H26.1816H27.1816C27.1816 141.774 28.5225 138.156 31.1195 135.468L30.4004 134.773ZM26.1816 146.434H25.1816C25.1816 151.262 26.5628 155.221 29.4144 158.199L30.1367 157.508L30.859 156.816C28.4372 154.287 27.1816 150.863 27.1816 146.434H26.1816ZM30.1367 157.508L29.4169 158.202C32.2675 161.158 36.0078 162.609 40.5371 162.609V161.609V160.609C36.4727 160.609 33.2793 159.326 30.8566 156.814L30.1367 157.508ZM40.5371 161.609V162.609C44.6654 162.609 48.2971 161.631 51.3912 159.638L50.8496 158.797L50.308 157.956C47.5818 159.713 44.3385 160.609 40.5371 160.609V161.609ZM50.8496 158.797H49.8496V165.242H50.8496H51.8496V158.797H50.8496ZM79.284 167V168H80.284V167H79.284ZM72.6922 167H71.6922V168H72.6922V167ZM72.6922 162.312H73.6922V161.312H72.6922V162.312ZM72.575 162.312V161.312H71.997L71.7085 161.813L72.575 162.312ZM56.5203 165.301L55.826 166.02L55.8302 166.025L56.5203 165.301ZM63.8152 149.041L63.6752 148.051L63.673 148.051L63.8152 149.041ZM72.7215 147.781L72.8615 148.771L73.7215 148.65V147.781H72.7215ZM56.9598 145.057H55.9598V147.231L57.6106 145.816L56.9598 145.057ZM56.9598 139.109L56.45 138.249L55.9598 138.54V139.109H56.9598ZM72.7215 152.264H73.7215V151.114L72.5833 151.273L72.7215 152.264ZM66.4227 153.143L66.5516 154.134L66.5609 154.133L66.4227 153.143ZM61.9988 154.578L62.5723 155.397L62.5755 155.395L61.9988 154.578ZM61.8816 161.346L61.2074 162.084L61.2157 162.092L61.2243 162.099L61.8816 161.346ZM70.6707 160.379L69.9396 159.697L69.9393 159.697L70.6707 160.379ZM79.284 167V166H72.6922V167V168H79.284V167ZM72.6922 167H73.6922V162.312H72.6922H71.6922V167H72.6922ZM72.6922 162.312V161.312H72.575V162.312V163.312H72.6922V162.312ZM72.575 162.312L71.7085 161.813C69.8088 165.111 67.0944 166.703 63.4637 166.703V167.703V168.703C67.8407 168.703 71.2006 166.702 73.4415 162.812L72.575 162.312ZM63.4637 167.703V166.703C60.6989 166.703 58.6575 165.957 57.2104 164.577L56.5203 165.301L55.8302 166.025C57.7425 167.848 60.33 168.703 63.4637 168.703V167.703ZM56.5203 165.301L57.2146 164.581C55.7784 163.196 55.0301 161.351 55.0301 158.943H54.0301H53.0301C53.0301 161.809 53.9419 164.203 55.826 166.02L56.5203 165.301ZM54.0301 158.943H55.0301C55.0301 156.313 55.781 154.346 57.1877 152.923C58.6126 151.481 60.8235 150.481 63.9575 150.031L63.8152 149.041L63.673 148.051C60.2835 148.538 57.6019 149.658 55.7651 151.517C53.91 153.394 53.0301 155.91 53.0301 158.943H54.0301ZM63.8152 149.041L63.9553 150.031L72.8615 148.771L72.7215 147.781L72.5814 146.791L63.6752 148.051L63.8152 149.041ZM72.7215 147.781H73.7215C73.7215 145.501 73.1809 143.605 71.9231 142.281C70.6561 140.947 68.8267 140.365 66.6277 140.365V141.365V142.365C68.4913 142.365 69.7087 142.853 70.473 143.658C71.2464 144.472 71.7215 145.784 71.7215 147.781H72.7215ZM66.6277 141.365V140.365C62.8002 140.365 59.3499 141.691 56.309 144.297L56.9598 145.057L57.6106 145.816C60.3118 143.501 63.3068 142.365 66.6277 142.365V141.365ZM56.9598 145.057H57.9598V139.109H56.9598H55.9598V145.057H56.9598ZM56.9598 139.109L57.4696 139.97C60.4606 138.197 63.9325 137.297 67.9168 137.297V136.297V135.297C63.6199 135.297 59.7871 136.272 56.45 138.249L56.9598 139.109ZM67.9168 136.297V137.297C71.5556 137.297 74.1003 138.192 75.7406 139.807C77.3781 141.419 78.284 143.916 78.284 147.488H79.284H80.284C80.284 143.6 79.2954 140.5 77.1438 138.382C74.995 136.267 71.8561 135.297 67.9168 135.297V136.297ZM79.284 147.488H78.284V167H79.284H80.284V147.488H79.284ZM72.7215 152.264L72.5833 151.273L66.2845 152.152L66.4227 153.143L66.5609 154.133L72.8597 153.254L72.7215 152.264ZM66.4227 153.143L66.2937 152.151C64.2679 152.414 62.6087 152.924 61.4221 153.761L61.9988 154.578L62.5755 155.395C63.3812 154.826 64.6712 154.379 66.5516 154.134L66.4227 153.143ZM61.9988 154.578L61.4254 153.759C60.0736 154.705 59.534 156.305 59.534 158.211H60.534H61.534C61.534 156.64 61.971 155.818 62.5723 155.397L61.9988 154.578ZM60.534 158.211H59.534C59.534 159.748 60.0914 161.065 61.2074 162.084L61.8816 161.346L62.5559 160.607C61.875 159.985 61.534 159.213 61.534 158.211H60.534ZM61.8816 161.346L61.2243 162.099C62.3666 163.096 63.8413 163.547 65.5438 163.547V162.547V161.547C64.1993 161.547 63.2326 161.197 62.539 160.592L61.8816 161.346ZM65.5438 162.547V163.547C67.8765 163.547 69.8554 162.72 71.4021 161.061L70.6707 160.379L69.9393 159.697C68.7907 160.929 67.3516 161.547 65.5438 161.547V162.547ZM70.6707 160.379L71.4018 161.061C72.9599 159.392 73.7215 157.303 73.7215 154.871H72.7215H71.7215C71.7215 156.853 71.1159 158.436 69.9396 159.697L70.6707 160.379ZM72.7215 154.871H73.7215V152.264H72.7215H71.7215V154.871H72.7215ZM92.6305 167V168H93.6305V167H92.6305ZM85.8043 167H84.8043V168H85.8043V167ZM85.8043 122.586V121.586H84.8043V122.586H85.8043ZM92.6305 122.586H93.6305V121.586H92.6305V122.586ZM92.6305 167V166H85.8043V167V168H92.6305V167ZM85.8043 167H86.8043V122.586H85.8043H84.8043V167H85.8043ZM85.8043 122.586V123.586H92.6305V122.586V121.586H85.8043V122.586ZM92.6305 122.586H91.6305V167H92.6305H93.6305V122.586H92.6305ZM121.182 165.623L121.682 166.489L122.182 166.2V165.623H121.182ZM101.875 163.543L101.161 164.243L101.163 164.245L101.875 163.543ZM102.168 140.809L101.454 140.108L101.454 140.109L102.168 140.809ZM121.211 137.732H122.211V137.09L121.628 136.823L121.211 137.732ZM121.211 144.061L120.613 144.861L122.211 146.057V144.061H121.211ZM107.471 144.646L108.196 145.335L108.2 145.331L107.471 144.646ZM107.295 159.617L106.573 160.308L106.577 160.312L107.295 159.617ZM121.182 159.705H122.182V157.622L120.556 158.925L121.182 159.705ZM121.182 165.623L120.682 164.757C118.457 166.041 115.795 166.703 112.657 166.703V167.703V168.703C116.081 168.703 119.102 167.978 121.682 166.489L121.182 165.623ZM112.657 167.703V166.703C108.429 166.703 105.107 165.396 102.587 162.841L101.875 163.543L101.163 164.245C104.113 167.237 107.978 168.703 112.657 168.703V167.703ZM101.875 163.543L102.59 162.843C100.064 160.263 98.7738 156.913 98.7738 152.703H97.7738H96.7738C96.7738 157.36 98.2184 161.237 101.161 164.243L101.875 163.543ZM97.7738 152.703H98.7738C98.7738 147.973 100.169 144.277 102.882 141.509L102.168 140.809L101.454 140.109C98.3086 143.317 96.7738 147.551 96.7738 152.703H97.7738ZM102.168 140.809L102.882 141.509C105.612 138.725 109.273 137.297 113.975 137.297V136.297V135.297C108.833 135.297 104.623 136.877 101.454 140.108L102.168 140.809ZM113.975 136.297V137.297C116.593 137.297 118.858 137.755 120.795 138.642L121.211 137.732L121.628 136.823C119.385 135.796 116.826 135.297 113.975 135.297V136.297ZM121.211 137.732H120.211V144.061H121.211H122.211V137.732H121.211ZM121.211 144.061L121.81 143.26C119.566 141.582 117.133 140.717 114.532 140.717V141.717V142.717C116.657 142.717 118.677 143.414 120.613 144.861L121.211 144.061ZM114.532 141.717V140.717C111.407 140.717 108.782 141.792 106.742 143.962L107.471 144.646L108.2 145.331C109.832 143.595 111.915 142.717 114.532 142.717V141.717ZM107.471 144.646L106.746 143.958C104.702 146.11 103.717 148.912 103.717 152.264H104.717H105.717C105.717 149.326 106.568 147.05 108.196 145.335L107.471 144.646ZM104.717 152.264H103.717C103.717 155.559 104.634 158.282 106.573 160.308L107.295 159.617L108.018 158.926C106.519 157.359 105.717 155.179 105.717 152.264H104.717ZM107.295 159.617L106.577 160.312C108.534 162.336 111.135 163.312 114.268 163.312V162.312V161.312C111.58 161.312 109.533 160.492 108.014 158.922L107.295 159.617ZM114.268 162.312V163.312C116.968 163.312 119.488 162.345 121.808 160.485L121.182 159.705L120.556 158.925C118.54 160.542 116.451 161.312 114.268 161.312V162.312ZM121.182 159.705H120.182V165.623H121.182H122.182V159.705H121.182ZM152.312 167V168H153.312V167H152.312ZM145.515 167H144.515V168H145.515V167ZM145.515 162.254H146.515V161.254H145.515V162.254ZM145.398 162.254V161.254H144.803L144.519 161.777L145.398 162.254ZM125.564 137V136H124.564V137H125.564ZM132.361 137H133.361V136H132.361V137ZM143.552 160.086L142.802 159.425L142.797 159.43L143.552 160.086ZM145.515 137V136H144.515V137H145.515ZM152.312 137H153.312V136H152.312V137ZM152.312 167V166H145.515V167V168H152.312V167ZM145.515 167H146.515V162.254H145.515H144.515V167H145.515ZM145.515 162.254V161.254H145.398V162.254V163.254H145.515V162.254ZM145.398 162.254L144.519 161.777C143.605 163.46 142.463 164.678 141.109 165.48C139.754 166.283 138.13 166.703 136.198 166.703V167.703V168.703C138.427 168.703 140.416 168.215 142.128 167.201C143.84 166.187 145.218 164.68 146.276 162.731L145.398 162.254ZM136.198 167.703V166.703C132.861 166.703 130.523 165.71 128.991 163.87C127.43 161.995 126.564 159.073 126.564 154.93H125.564H124.564C124.564 159.302 125.47 162.767 127.454 165.15C129.467 167.568 132.446 168.703 136.198 168.703V167.703ZM125.564 154.93H126.564V137H125.564H124.564V154.93H125.564ZM125.564 137V138H132.361V137V136H125.564V137ZM132.361 137H131.361V154.227H132.361H133.361V137H132.361ZM132.361 154.227H131.361C131.361 157.023 131.895 159.303 133.129 160.902C134.401 162.55 136.287 163.312 138.601 163.312V162.312V161.312C136.754 161.312 135.521 160.728 134.712 159.68C133.866 158.583 133.361 156.821 133.361 154.227H132.361ZM138.601 162.312V163.312C140.894 163.312 142.823 162.45 144.307 160.742L143.552 160.086L142.797 159.43C141.703 160.69 140.331 161.312 138.601 161.312V162.312ZM143.552 160.086L144.302 160.747C145.804 159.043 146.515 156.847 146.515 154.256H145.515H144.515C144.515 156.469 143.917 158.16 142.802 159.425L143.552 160.086ZM145.515 154.256H146.515V137H145.515H144.515V154.256H145.515ZM145.515 137V138H152.312V137V136H145.515V137ZM152.312 137H151.312V167H152.312H153.312V137H152.312ZM166.215 167V168H167.215V167H166.215ZM159.389 167H158.389V168H159.389V167ZM159.389 122.586V121.586H158.389V122.586H159.389ZM166.215 122.586H167.215V121.586H166.215V122.586ZM166.215 167V166H159.389V167V168H166.215V167ZM159.389 167H160.389V122.586H159.389H158.389V167H159.389ZM159.389 122.586V123.586H166.215V122.586V121.586H159.389V122.586ZM166.215 122.586H165.215V167H166.215H167.215V122.586H166.215ZM196.319 167V168H197.319V167H196.319ZM189.727 167H188.727V168H189.727V167ZM189.727 162.312H190.727V161.312H189.727V162.312ZM189.61 162.312V161.312H189.032L188.744 161.813L189.61 162.312ZM173.555 165.301L172.861 166.02L172.865 166.025L173.555 165.301ZM180.85 149.041L180.71 148.051L180.708 148.051L180.85 149.041ZM189.757 147.781L189.897 148.771L190.757 148.65V147.781H189.757ZM173.995 145.057H172.995V147.231L174.646 145.816L173.995 145.057ZM173.995 139.109L173.485 138.249L172.995 138.54V139.109H173.995ZM189.757 152.264H190.757V151.114L189.618 151.273L189.757 152.264ZM183.458 153.143L183.587 154.134L183.596 154.133L183.458 153.143ZM179.034 154.578L179.607 155.397L179.611 155.395L179.034 154.578ZM178.917 161.346L178.243 162.084L178.251 162.092L178.259 162.099L178.917 161.346ZM187.706 160.379L186.975 159.697L186.974 159.697L187.706 160.379ZM196.319 167V166H189.727V167V168H196.319V167ZM189.727 167H190.727V162.312H189.727H188.727V167H189.727ZM189.727 162.312V161.312H189.61V162.312V163.312H189.727V162.312ZM189.61 162.312L188.744 161.813C186.844 165.111 184.13 166.703 180.499 166.703V167.703V168.703C184.876 168.703 188.236 166.702 190.477 162.812L189.61 162.312ZM180.499 167.703V166.703C177.734 166.703 175.693 165.957 174.246 164.577L173.555 165.301L172.865 166.025C174.778 167.848 177.365 168.703 180.499 168.703V167.703ZM173.555 165.301L174.25 164.581C172.814 163.196 172.065 161.351 172.065 158.943H171.065H170.065C170.065 161.809 170.977 164.203 172.861 166.02L173.555 165.301ZM171.065 158.943H172.065C172.065 156.313 172.816 154.346 174.223 152.923C175.648 151.481 177.859 150.481 180.993 150.031L180.85 149.041L180.708 148.051C177.319 148.538 174.637 149.658 172.8 151.517C170.945 153.394 170.065 155.91 170.065 158.943H171.065ZM180.85 149.041L180.99 150.031L189.897 148.771L189.757 147.781L189.617 146.791L180.71 148.051L180.85 149.041ZM189.757 147.781H190.757C190.757 145.501 190.216 143.605 188.958 142.281C187.691 140.947 185.862 140.365 183.663 140.365V141.365V142.365C185.526 142.365 186.744 142.853 187.508 143.658C188.282 144.472 188.757 145.784 188.757 147.781H189.757ZM183.663 141.365V140.365C179.835 140.365 176.385 141.691 173.344 144.297L173.995 145.057L174.646 145.816C177.347 143.501 180.342 142.365 183.663 142.365V141.365ZM173.995 145.057H174.995V139.109H173.995H172.995V145.057H173.995ZM173.995 139.109L174.505 139.97C177.496 138.197 180.968 137.297 184.952 137.297V136.297V135.297C180.655 135.297 176.822 136.272 173.485 138.249L173.995 139.109ZM184.952 136.297V137.297C188.591 137.297 191.135 138.192 192.776 139.807C194.413 141.419 195.319 143.916 195.319 147.488H196.319H197.319C197.319 143.6 196.331 140.5 194.179 138.382C192.03 136.267 188.891 135.297 184.952 135.297V136.297ZM196.319 147.488H195.319V167H196.319H197.319V147.488H196.319ZM189.757 152.264L189.618 151.273L183.32 152.152L183.458 153.143L183.596 154.133L189.895 153.254L189.757 152.264ZM183.458 153.143L183.329 152.151C181.303 152.414 179.644 152.924 178.457 153.761L179.034 154.578L179.611 155.395C180.416 154.826 181.706 154.379 183.587 154.134L183.458 153.143ZM179.034 154.578L178.461 153.759C177.109 154.705 176.569 156.305 176.569 158.211H177.569H178.569C178.569 156.64 179.006 155.818 179.607 155.397L179.034 154.578ZM177.569 158.211H176.569C176.569 159.748 177.127 161.065 178.243 162.084L178.917 161.346L179.591 160.607C178.91 159.985 178.569 159.213 178.569 158.211H177.569ZM178.917 161.346L178.259 162.099C179.402 163.096 180.876 163.547 182.579 163.547V162.547V161.547C181.234 161.547 180.268 161.197 179.574 160.592L178.917 161.346ZM182.579 162.547V163.547C184.912 163.547 186.891 162.72 188.437 161.061L187.706 160.379L186.974 159.697C185.826 160.929 184.387 161.547 182.579 161.547V162.547ZM187.706 160.379L188.437 161.061C189.995 159.392 190.757 157.303 190.757 154.871H189.757H188.757C188.757 156.853 188.151 158.436 186.975 159.697L187.706 160.379ZM189.757 154.871H190.757V152.264H189.757H188.757V154.871H189.757ZM218.66 166.678L219.107 167.572L219.66 167.296V166.678H218.66ZM204.685 142.332H205.685V141.332H204.685V142.332ZM199.675 142.332H198.675V143.332H199.675V142.332ZM199.675 137V136H198.675V137H199.675ZM204.685 137V138H205.685V137H204.685ZM204.685 130.057L204.412 129.095L203.685 129.301V130.057H204.685ZM211.482 128.123H212.482V126.799L211.208 127.161L211.482 128.123ZM211.482 137H210.482V138H211.482V137ZM218.66 137H219.66V136H218.66V137ZM218.66 142.332V143.332H219.66V142.332H218.66ZM211.482 142.332V141.332H210.482V142.332H211.482ZM218.66 161.287H219.66V159.222L218.04 160.503L218.66 161.287ZM218.66 166.678L218.213 165.783C217.072 166.353 215.494 166.674 213.416 166.674V167.674V168.674C215.673 168.674 217.591 168.33 219.107 167.572L218.66 166.678ZM213.416 167.674V166.674C210.65 166.674 208.76 166.01 207.56 164.858C206.368 163.713 205.685 161.923 205.685 159.295H204.685H203.685C203.685 162.253 204.458 164.652 206.175 166.301C207.885 167.942 210.361 168.674 213.416 168.674V167.674ZM204.685 159.295H205.685V142.332H204.685H203.685V159.295H204.685ZM204.685 142.332V141.332H199.675V142.332V143.332H204.685V142.332ZM199.675 142.332H200.675V137H199.675H198.675V142.332H199.675ZM199.675 137V138H204.685V137V136H199.675V137ZM204.685 137H205.685V130.057H204.685H203.685V137H204.685ZM204.685 130.057L204.959 131.018L211.756 129.085L211.482 128.123L211.208 127.161L204.412 129.095L204.685 130.057ZM211.482 128.123H210.482V137H211.482H212.482V128.123H211.482ZM211.482 137V138H218.66V137V136H211.482V137ZM218.66 137H217.66V142.332H218.66H219.66V137H218.66ZM218.66 142.332V141.332H211.482V142.332V143.332H218.66V142.332ZM211.482 142.332H210.482V157.332H211.482H212.482V142.332H211.482ZM211.482 157.332H210.482C210.482 159.18 210.807 160.749 211.685 161.787L212.449 161.141L213.212 160.495C212.801 160.009 212.482 159.039 212.482 157.332H211.482ZM212.449 161.141L211.685 161.787C212.6 162.867 214.025 163.283 215.671 163.283V162.283V161.283C214.311 161.283 213.587 160.938 213.212 160.495L212.449 161.141ZM215.671 162.283V163.283C217.031 163.283 218.25 162.886 219.28 162.072L218.66 161.287L218.04 160.503C217.39 161.016 216.617 161.283 215.671 161.283V162.283ZM218.66 161.287H217.66V166.678H218.66H219.66V161.287H218.66ZM224.565 163.514L223.85 164.213L223.855 164.218L224.565 163.514ZM224.741 140.545L224.041 139.831L224.038 139.833L224.741 140.545ZM247.036 163.396L246.321 162.697L246.321 162.697L247.036 163.396ZM229.721 159.617L228.963 160.269L228.966 160.273L229.721 159.617ZM242.143 159.646L241.367 159.016L241.363 159.021L242.143 159.646ZM242.143 144.412L241.36 145.034L241.364 145.039L242.143 144.412ZM235.668 167.703V166.703C231.255 166.703 227.827 165.38 225.274 162.809L224.565 163.514L223.855 164.218C226.849 167.233 230.824 168.703 235.668 168.703V167.703ZM224.565 163.514L225.279 162.814C222.74 160.221 221.434 156.768 221.434 152.352H220.434H219.434C219.434 157.193 220.882 161.181 223.85 164.213L224.565 163.514ZM220.434 152.352H221.434C221.434 147.509 222.807 143.857 225.443 141.257L224.741 140.545L224.038 139.833C220.932 142.897 219.434 147.116 219.434 152.352H220.434ZM224.741 140.545L225.44 141.259C228.107 138.647 231.722 137.297 236.401 137.297V136.297V135.297C231.314 135.297 227.156 136.779 224.041 139.831L224.741 140.545ZM236.401 136.297V137.297C240.883 137.297 244.247 138.606 246.633 141.117L247.358 140.428L248.083 139.739C245.234 136.742 241.294 135.297 236.401 135.297V136.297ZM247.358 140.428L246.633 141.117C249.027 143.636 250.284 147.18 250.284 151.883H251.284H252.284C252.284 146.82 250.923 142.727 248.083 139.739L247.358 140.428ZM251.284 151.883H250.284C250.284 156.457 248.937 160.027 246.321 162.697L247.036 163.396L247.75 164.096C250.798 160.985 252.284 156.878 252.284 151.883H251.284ZM247.036 163.396L246.321 162.697C243.731 165.34 240.219 166.703 235.668 166.703V167.703V168.703C240.649 168.703 244.715 167.195 247.75 164.096L247.036 163.396ZM235.991 141.717V140.717C233.071 140.717 230.677 141.752 228.923 143.861L229.692 144.5L230.461 145.139C231.793 143.537 233.598 142.717 235.991 142.717V141.717ZM229.692 144.5L228.923 143.861C227.185 145.95 226.377 148.763 226.377 152.176H227.377H228.377C228.377 149.065 229.112 146.761 230.461 145.139L229.692 144.5ZM227.377 152.176H226.377C226.377 155.484 227.201 158.221 228.963 160.269L229.721 159.617L230.479 158.965C229.116 157.38 228.377 155.157 228.377 152.176H227.377ZM229.721 159.617L228.966 160.273C230.739 162.312 233.116 163.312 235.991 163.312V162.312V161.312C233.631 161.312 231.828 160.516 230.476 158.961L229.721 159.617ZM235.991 162.312V163.312C238.911 163.312 241.273 162.329 242.923 160.272L242.143 159.646L241.363 159.021C240.161 160.519 238.422 161.312 235.991 161.312V162.312ZM242.143 159.646L242.919 160.277C244.56 158.259 245.311 155.473 245.311 152.059H244.311H243.311C243.311 155.207 242.616 157.48 241.367 159.016L242.143 159.646ZM244.311 152.059H245.311C245.311 148.626 244.561 145.822 242.922 143.785L242.143 144.412L241.364 145.039C242.616 146.595 243.311 148.89 243.311 152.059H244.311ZM242.143 144.412L242.926 143.791C241.278 141.713 238.915 140.717 235.991 140.717V141.717V142.717C238.418 142.717 240.156 143.517 241.36 145.034L242.143 144.412ZM273.829 143.475L273.211 144.261L274.829 145.532V143.475H273.829ZM263.224 167V168H264.224V167H263.224ZM256.427 167H255.427V168H256.427V167ZM256.427 137V136H255.427V137H256.427ZM263.224 137H264.224V136H263.224V137ZM263.224 143.182H262.224V144.182H263.224V143.182ZM263.341 143.182V144.182H264.075L264.295 143.482L263.341 143.182ZM266.388 138.26L267.039 139.019L267.04 139.018L266.388 138.26ZM273.829 137.029H274.829V136.451L274.328 136.163L273.829 137.029ZM273.829 143.475L274.447 142.688C273.384 141.853 271.948 141.508 270.284 141.508V142.508V143.508C271.706 143.508 272.634 143.807 273.211 144.261L273.829 143.475ZM270.284 142.508V141.508C267.913 141.508 265.952 142.602 264.442 144.637L265.245 145.232L266.048 145.828C267.234 144.23 268.632 143.508 270.284 143.508V142.508ZM265.245 145.232L264.442 144.637C262.926 146.68 262.224 149.385 262.224 152.645H263.224H264.224C264.224 149.654 264.869 147.417 266.048 145.828L265.245 145.232ZM263.224 152.645H262.224V167H263.224H264.224V152.645H263.224ZM263.224 167V166H256.427V167V168H263.224V167ZM256.427 167H257.427V137H256.427H255.427V167H256.427ZM256.427 137V138H263.224V137V136H256.427V137ZM263.224 137H262.224V143.182H263.224H264.224V137H263.224ZM263.224 143.182V144.182H263.341V143.182V142.182H263.224V143.182ZM263.341 143.182L264.295 143.482C264.916 141.51 265.843 140.044 267.039 139.019L266.388 138.26L265.737 137.501C264.199 138.819 263.095 140.634 262.387 142.881L263.341 143.182ZM266.388 138.26L267.04 139.018C268.26 137.97 269.576 137.473 271.017 137.473V136.473V135.473C269.06 135.473 267.289 136.167 265.736 137.501L266.388 138.26ZM271.017 136.473V137.473C272.174 137.473 272.907 137.652 273.33 137.896L273.829 137.029L274.328 136.163C273.463 135.664 272.32 135.473 271.017 135.473V136.473ZM273.829 137.029H272.829V143.475H273.829H274.829V137.029H273.829ZM284.773 124.988L285.773 125.007L285.792 123.988H284.773V124.988ZM284.217 154.637V155.637H285.198L285.217 154.655L284.217 154.637ZM278.65 154.637L277.651 154.662L277.676 155.637H278.65V154.637ZM277.889 124.988V123.988H276.863L276.889 125.014L277.889 124.988ZM278.533 166.473L277.853 167.206L277.862 167.214L278.533 166.473ZM284.451 160.877L283.761 161.601L283.77 161.609L284.451 160.877ZM284.451 166.473L285.122 167.214L285.123 167.213L284.451 166.473ZM284.773 124.988L283.774 124.97L283.217 154.618L284.217 154.637L285.217 154.655L285.773 125.007L284.773 124.988ZM284.217 154.637V153.637H278.65V154.637V155.637H284.217V154.637ZM278.65 154.637L279.65 154.611L278.888 124.963L277.889 124.988L276.889 125.014L277.651 154.662L278.65 154.637ZM277.889 124.988V125.988H284.773V124.988V123.988H277.889V124.988ZM281.521 167.586V166.586C280.581 166.586 279.829 166.296 279.204 165.731L278.533 166.473L277.862 167.214C278.878 168.133 280.118 168.586 281.521 168.586V167.586ZM278.533 166.473L279.214 165.74C278.587 165.158 278.303 164.502 278.303 163.719H277.303H276.303C276.303 165.084 276.838 166.264 277.853 167.205L278.533 166.473ZM277.303 163.719H278.303C278.303 162.885 278.597 162.197 279.223 161.601L278.533 160.877L277.844 160.153C276.829 161.119 276.303 162.326 276.303 163.719H277.303ZM278.533 160.877L279.223 161.601C279.85 161.004 280.597 160.705 281.521 160.705V159.705V158.705C280.103 158.705 278.857 159.188 277.844 160.153L278.533 160.877ZM281.521 159.705V160.705C282.398 160.705 283.127 160.997 283.762 161.601L284.451 160.877L285.141 160.153C284.135 159.194 282.911 158.705 281.521 158.705V159.705ZM284.451 160.877L283.77 161.609C284.414 162.208 284.711 162.893 284.711 163.719H285.711H286.711C286.711 162.318 286.169 161.109 285.132 160.145L284.451 160.877ZM285.711 163.719H284.711C284.711 164.494 284.423 165.148 283.779 165.732L284.451 166.473L285.123 167.213C286.159 166.274 286.711 165.092 286.711 163.719H285.711ZM284.451 166.473L283.78 165.731C283.149 166.303 282.413 166.586 281.521 166.586V167.586V168.586C282.896 168.586 284.113 168.127 285.122 167.214L284.451 166.473Z" fill="black" mask="url(#path-8-outside-3_0_1)"/>
<defs>
<linearGradient id="paint0_linear_0_1" x1="147.783" y1="14.2466" x2="147.783" y2="143.406" gradientUnits="userSpaceOnUse">
<stop offset="0.5" stop-color="#EE5344"/>
<stop offset="0.5001" stop-color="white"/>
</linearGradient>
<clipPath id="clip0_0_1">
<rect width="158" height="158" fill="white" transform="translate(69)"/>
</clipPath>
</defs>
</svg>
